<svg xmlns="http://www.w3.org/2000/svg" width="375" height="376" fill="none" viewBox="0 0 375 376"><path fill="#015FFF" d="M233.498 180.509C230.598 183.408 225.9 183.411 223.004 180.515L190.416 147.928C187.52 145.032 187.523 140.333 190.423 137.434L292.425 35.4316C295.324 32.5321 300.023 32.5293 302.919 35.4254L335.506 68.0126C338.402 70.9087 338.399 75.6071 335.5 78.5066L233.498 180.509Z"/><path fill="#015FFF" d="M222.986 216.175C218.888 216.177 215.568 212.857 215.57 208.759L215.597 162.646C215.6 158.548 218.924 155.224 223.022 155.222L367.19 155.136C371.288 155.134 374.608 158.454 374.606 162.552L374.579 208.665C374.576 212.763 371.252 216.087 367.154 216.09L222.986 216.175Z"/><path fill="#015FFF" d="M190.342 233.992C187.446 231.095 187.449 226.397 190.349 223.498L222.974 190.872C225.874 187.972 230.572 187.97 233.468 190.866L335.35 292.747C338.246 295.644 338.243 300.342 335.344 303.241L302.718 335.867C299.819 338.767 295.12 338.769 292.224 335.873L190.342 233.992Z"/><path fill="#015FFF" d="M154.689 223.522C154.691 219.424 158.015 216.1 162.114 216.097L208.226 216.07C212.324 216.068 215.645 219.388 215.642 223.486L215.557 367.654C215.555 371.752 212.23 375.076 208.132 375.079L162.02 375.106C157.922 375.108 154.601 371.788 154.604 367.69L154.689 223.522Z"/><path fill="#015FFF" d="M136.911 190.9C139.81 188 144.509 187.997 147.405 190.893L179.992 223.481C182.888 226.377 182.885 231.075 179.986 233.975L77.9834 335.977C75.0839 338.876 70.3856 338.879 67.4894 335.983L34.9022 303.396C32.0061 300.5 32.0089 295.801 34.9084 292.902L136.911 190.9Z"/><path fill="#F9FEFC" d="M208.381 155.422C212.626 155.42 216.065 158.859 216.062 163.103L216.035 208.447C216.033 212.692 212.59 216.135 208.345 216.137L8.52464 216.255C4.28011 216.258 0.841259 212.819 0.843767 208.574L0.870555 163.23C0.873064 158.986 4.31597 155.543 8.56051 155.54L208.381 155.422Z"/><path fill="#F9FEFC" d="M179.901 137.444C182.901 140.444 182.898 145.31 179.895 148.313L147.813 180.395C144.81 183.398 139.944 183.401 136.944 180.401L15.9098 59.3672C12.9103 56.3676 12.9132 51.5015 15.9163 48.4984L47.9982 16.4164C51.0013 13.4133 55.8674 13.4105 58.867 16.41L179.901 137.444Z"/><path fill="#F9FEFC" d="M216.035 208.447C216.033 212.692 212.59 216.135 208.345 216.137L162.745 216.164C158.501 216.167 155.062 212.728 155.064 208.483L155.182 8.6625C155.185 4.41797 158.628 0.975075 162.872 0.972567L208.472 0.945614C212.717 0.943106 216.156 4.38197 216.153 8.6265L216.035 208.447Z"/></svg>