<svg width="173" height="100" viewBox="0 0 173 100" fill="none" xmlns="http://www.w3.org/2000/svg">
<g clip-path="url(#clip0_1_2)">
<path d="M82.7 37.9C82.7 36.2 82.7 35.9 82.7 35.6C82.7 35.2 82.6 35.1 82.2 35C82.1 35 81.9 35 81.8 35C81.7 35 81.6 35 81.6 34.9C81.6 34.8 81.7 34.8 81.8 34.8C82.4 34.8 83.1 34.8 83.4 34.8C83.8 34.8 84.5 34.8 85 34.8C86.4 34.8 86.9 35.3 87 35.4C87.2 35.6 87.5 36.1 87.5 36.7C87.5 38.3 86.4 39.3 84.8 39.3C84.7 39.3 84.6 39.3 84.6 39.3C84.5 39.3 84.5 39.3 84.5 39.2C84.5 39.1 84.6 39.1 84.8 39.1C85.4 39.1 86.3 38.4 86.3 37.3C86.3 36.9 86.3 36.2 85.7 35.7C85.3 35.3 84.9 35.3 84.6 35.3C84.4 35.3 84.3 35.3 84.2 35.3C84.1 35.3 84.1 35.4 84.1 35.5V39.9C84.1 40.9 84.1 41.8 84.2 42.2C84.2 42.5 84.3 42.7 84.6 42.8C84.8 42.8 85 42.8 85.2 42.8C85.3 42.8 85.4 42.8 85.4 42.9C85.4 43 85.3 43 85.2 43C84.5 43 83.8 43 83.5 43C83.2 43 82.6 43 82.1 43C82 43 81.9 43 81.9 42.9C81.9 42.8 81.9 42.8 82.1 42.8C82.3 42.8 82.4 42.8 82.5 42.8C82.7 42.8 82.8 42.5 82.8 42.2C82.9 41.7 82.9 40.9 82.9 39.9V37.9H82.7Z" fill="#015FFF"/>
<path d="M88.9 38.9C88.9 37 90.1 34.6 93.4 34.6C96.1 34.6 97.8 36.2 97.8 38.7C97.8 41.2 96 43.2 93.3 43.2C90.1 43.2 88.9 40.8 88.9 38.9ZM96.3 39.1C96.3 36.6 94.9 35.1 93.1 35.1C91.8 35.1 90.4 35.8 90.4 38.5C90.4 40.8 91.7 42.6 93.8 42.6C94.5 42.6 96.3 42.3 96.3 39.1Z" fill="#015FFF"/>
<path d="M100.9 41.5C100.9 42.4 101.1 42.6 101.3 42.7C101.5 42.8 101.7 42.8 101.9 42.8C102 42.8 102.1 42.8 102.1 42.9C102.1 43 102 43 101.8 43C101.1 43 100.7 43 100.4 43C100.3 43 99.8 43 99.2 43C99.1 43 99 43 99 42.9C99 42.8 99.1 42.8 99.2 42.8C99.3 42.8 99.5 42.8 99.7 42.7C100 42.6 100 42.3 100 41.3L100.1 34.8C100.1 34.6 100.1 34.4 100.2 34.4C100.3 34.4 100.4 34.5 100.6 34.7C100.7 34.8 102.4 36.6 104 38.2C104.7 38.9 106.2 40.5 106.4 40.7H106.5L106.4 35.8C106.4 35.1 106.3 34.9 106 34.8C105.8 34.7 105.6 34.7 105.4 34.7C105.3 34.7 105.2 34.7 105.2 34.6C105.2 34.5 105.3 34.5 105.5 34.5C106.1 34.5 106.6 34.5 106.8 34.5C106.9 34.5 107.3 34.5 107.9 34.5C108 34.5 108.2 34.5 108.2 34.6C108.2 34.7 108.1 34.7 108 34.7C107.9 34.7 107.8 34.7 107.7 34.7C107.4 34.8 107.3 35 107.3 35.6L107.2 42.5C107.2 42.7 107.2 42.8 107.1 42.8C107 42.8 106.8 42.7 106.7 42.6C106 41.9 104.6 40.5 103.5 39.4C102.3 38.2 101.1 36.9 100.9 36.6V41.5Z" fill="#015FFF"/>
<path d="M112.5 35.4H110.9C110.3 35.4 110 35.5 109.8 35.7C109.7 35.9 109.6 36 109.6 36.1C109.6 36.2 109.5 36.2 109.5 36.2C109.4 36.2 109.4 36.1 109.4 36C109.4 35.8 109.6 34.8 109.6 34.7C109.6 34.6 109.7 34.5 109.7 34.5C109.8 34.5 109.9 34.6 110.2 34.6C110.5 34.6 110.9 34.7 111.3 34.7H115.6C116.3 34.7 116.6 34.6 116.7 34.6C116.8 34.6 116.8 34.7 116.8 34.8C116.8 35 116.8 35.8 116.8 36.1C116.8 36.2 116.8 36.3 116.7 36.3C116.6 36.3 116.6 36.2 116.6 36.1V36C116.6 35.7 116.3 35.4 115.3 35.4H113.9V39.9C113.9 40.9 113.9 41.8 114 42.2C114 42.5 114.1 42.7 114.4 42.8C114.6 42.8 114.8 42.8 115 42.8C115.1 42.8 115.2 42.8 115.2 42.9C115.2 43 115.1 43 115 43C114.3 43 113.6 43 113.3 43C113 43 112.4 43 111.9 43C111.8 43 111.7 43 111.7 42.9C111.7 42.8 111.7 42.8 111.9 42.8C112.1 42.8 112.2 42.8 112.3 42.8C112.5 42.8 112.6 42.5 112.6 42.2C112.7 41.7 112.7 40.9 112.7 39.9V35.4H112.5Z" fill="#015FFF"/>
<path d="M119.2 37.9C119.2 36.2 119.2 35.9 119.2 35.6C119.2 35.2 119.1 35 118.8 35C118.7 35 118.5 35 118.4 35C118.3 35 118.2 35 118.2 34.9C118.2 34.8 118.3 34.8 118.5 34.8C118.9 34.8 119.6 34.8 119.9 34.8C120.2 34.8 120.8 34.8 121.2 34.8C121.3 34.8 121.4 34.8 121.4 34.9C121.4 35 121.3 35 121.2 35C121.1 35 121 35 120.9 35C120.6 35.1 120.5 35.2 120.5 35.6C120.5 35.9 120.5 36.3 120.5 37.9V39.8C120.5 40.9 120.5 41.7 120.5 42.2C120.5 42.5 120.6 42.7 120.9 42.7C121.1 42.7 121.3 42.7 121.5 42.7C121.6 42.7 121.7 42.7 121.7 42.8C121.7 42.9 121.6 42.9 121.5 42.9C120.8 42.9 120.1 42.9 119.8 42.9C119.5 42.9 118.9 42.9 118.4 42.9C118.3 42.9 118.2 42.9 118.2 42.8C118.2 42.7 118.2 42.7 118.4 42.7C118.6 42.7 118.7 42.7 118.8 42.7C119 42.7 119.1 42.5 119.1 42.2C119.2 41.7 119.2 40.9 119.2 39.8V37.9Z" fill="#015FFF"/>
<path d="M125.7 39.9C125.7 40.9 125.7 41.8 125.8 42.2C125.8 42.5 125.9 42.8 126.2 42.8C126.4 42.8 126.6 42.8 126.7 42.8C126.8 42.8 126.9 42.8 126.9 42.9C126.9 43 126.8 43 126.7 43C126 43 125.3 43 125 43C124.7 43 124 43 123.6 43C123.4 43 123.4 43 123.4 42.9C123.4 42.8 123.4 42.8 123.6 42.8C123.8 42.8 123.9 42.8 124 42.8C124.2 42.8 124.3 42.5 124.3 42.2C124.4 41.7 124.4 40.9 124.4 39.9V38C124.4 36.3 124.4 36 124.4 35.7C124.4 35.3 124.3 35.2 123.9 35.1C123.8 35.1 123.6 35.1 123.5 35.1C123.4 35.1 123.3 35.1 123.3 35C123.3 34.9 123.4 34.9 123.6 34.9C124.2 34.9 124.9 34.9 125.2 34.9C125.6 34.9 127.8 34.9 128.1 34.9C128.3 34.9 128.4 34.9 128.5 34.9C128.6 34.9 128.6 34.8 128.7 34.8C128.7 34.8 128.8 34.8 128.8 34.9C128.8 35 128.7 35.1 128.7 35.4C128.7 35.5 128.7 36.2 128.6 36.3C128.6 36.4 128.6 36.5 128.5 36.5C128.4 36.5 128.4 36.4 128.4 36.3C128.4 36.2 128.4 36 128.3 35.9C128.2 35.7 128 35.6 127.6 35.6H125.9C125.8 35.6 125.8 35.6 125.8 35.8V38.5C125.8 38.6 125.8 38.6 125.9 38.6H127.3C127.5 38.6 127.6 38.6 127.8 38.6C128 38.6 128.2 38.5 128.3 38.4C128.4 38.3 128.4 38.3 128.4 38.3C128.4 38.3 128.5 38.3 128.5 38.4C128.5 38.5 128.4 38.7 128.4 39.1C128.4 39.3 128.4 39.8 128.4 39.9C128.4 40 128.4 40.1 128.3 40.1C128.2 40.1 128.2 40 128.2 39.9C128.2 39.8 128.2 39.7 128.1 39.6C128 39.4 127.9 39.3 127.5 39.2C127.2 39.2 126.1 39.2 125.9 39.2C125.8 39.2 125.8 39.2 125.8 39.3V39.9H125.7Z" fill="#015FFF"/>
<path d="M131.3 37.9C131.3 36.2 131.3 35.9 131.3 35.6C131.3 35.2 131.2 35 130.9 35C130.8 35 130.6 35 130.5 35C130.4 35 130.3 35 130.3 34.9C130.3 34.8 130.4 34.8 130.6 34.8C131 34.8 131.7 34.8 132 34.8C132.3 34.8 132.9 34.8 133.3 34.8C133.4 34.8 133.5 34.8 133.5 34.9C133.5 35 133.4 35 133.3 35C133.2 35 133.1 35 133 35C132.7 35.1 132.6 35.2 132.6 35.6C132.6 35.9 132.6 36.3 132.6 37.9V39.8C132.6 40.9 132.6 41.7 132.6 42.2C132.6 42.5 132.7 42.7 133 42.7C133.2 42.7 133.4 42.7 133.6 42.7C133.7 42.7 133.8 42.7 133.8 42.8C133.8 42.9 133.7 42.9 133.6 42.9C132.9 42.9 132.2 42.9 131.9 42.9C131.6 42.9 131 42.9 130.5 42.9C130.4 42.9 130.3 42.9 130.3 42.8C130.3 42.7 130.3 42.7 130.5 42.7C130.7 42.7 130.8 42.7 130.9 42.7C131.1 42.7 131.2 42.5 131.2 42.2C131.3 41.7 131.3 40.9 131.3 39.8V37.9Z" fill="#015FFF"/>
<path d="M136.3 42C135.2 41.1 134.9 39.8 134.9 38.8C134.9 38.1 135.1 36.8 136.2 35.8C137 35.1 138 34.6 139.7 34.6C140.4 34.6 140.8 34.6 141.3 34.7C141.7 34.8 142.1 34.9 142.4 34.9C142.5 34.9 142.6 35 142.6 35C142.6 35.1 142.6 35.2 142.5 35.6C142.5 36 142.5 36.6 142.5 36.8C142.5 37 142.5 37.1 142.4 37.1C142.3 37.1 142.3 37 142.3 36.9C142.3 36.6 142.1 36.2 141.9 35.9C141.5 35.5 140.7 35.2 139.7 35.2C138.7 35.2 138.1 35.4 137.6 35.9C136.8 36.6 136.6 37.7 136.6 38.7C136.6 41.3 138.6 42.6 140 42.6C141 42.6 141.6 42.5 142 42C142.2 41.8 142.3 41.5 142.4 41.3C142.4 41.1 142.5 41.1 142.5 41.1C142.6 41.1 142.6 41.2 142.6 41.3C142.6 41.4 142.5 42.4 142.4 42.8C142.3 43 142.3 43 142.1 43.1C141.7 43.3 140.8 43.4 140.1 43.4C138.6 43.2 137.3 42.8 136.3 42Z" fill="#015FFF"/>
<path d="M145.1 37.9C145.1 36.2 145.1 35.9 145.1 35.6C145.1 35.2 145 35 144.7 35C144.6 35 144.4 35 144.3 35C144.2 35 144.1 35 144.1 34.9C144.1 34.8 144.2 34.8 144.4 34.8C144.8 34.8 145.5 34.8 145.8 34.8C146.1 34.8 146.7 34.8 147.1 34.8C147.2 34.8 147.3 34.8 147.3 34.9C147.3 35 147.2 35 147.1 35C147 35 146.9 35 146.8 35C146.5 35.1 146.4 35.2 146.4 35.6C146.4 35.9 146.4 36.3 146.4 37.9V39.8C146.4 40.9 146.4 41.7 146.4 42.2C146.4 42.5 146.5 42.7 146.8 42.7C147 42.7 147.2 42.7 147.4 42.7C147.5 42.7 147.6 42.7 147.6 42.8C147.6 42.9 147.5 42.9 147.4 42.9C146.7 42.9 146 42.9 145.7 42.9C145.4 42.9 144.8 42.9 144.3 42.9C144.2 42.9 144.1 42.9 144.1 42.8C144.1 42.7 144.1 42.7 144.3 42.7C144.5 42.7 144.6 42.7 144.7 42.7C144.9 42.7 145 42.5 145 42.2C145.1 41.7 145.1 40.9 145.1 39.8V37.9Z" fill="#015FFF"/>
<path d="M151.5 40.2C151.4 40.2 151.4 40.2 151.5 40.2L150.8 41.9C150.7 42.2 150.6 42.4 150.6 42.6C150.6 42.8 150.7 42.9 151 42.9H151.2C151.3 42.9 151.4 42.9 151.4 43C151.4 43.1 151.3 43.1 151.2 43.1C150.9 43.1 150.4 43.1 150 43.1C149.9 43.1 149.3 43.1 148.7 43.1C148.6 43.1 148.5 43.1 148.5 43C148.5 42.9 148.5 42.9 148.6 42.9C148.7 42.9 148.9 42.9 148.9 42.9C149.4 42.8 149.6 42.5 149.8 41.9L152.5 35C152.6 34.7 152.7 34.6 152.8 34.6C152.9 34.6 153 34.7 153.1 34.9C153.4 35.5 155.1 40 155.8 41.6C156.2 42.6 156.5 42.7 156.8 42.8C157 42.8 157.1 42.8 157.3 42.8C157.4 42.8 157.4 42.8 157.4 42.9C157.4 43 157.3 43 156.9 43C156.5 43 155.7 43 154.8 43C154.6 43 154.5 43 154.5 42.9C154.5 42.8 154.5 42.8 154.7 42.8C154.8 42.8 154.9 42.7 154.8 42.5L153.9 40.2C153.9 40.1 153.8 40.1 153.8 40.1H151.5V40.2ZM153.7 39.6C153.8 39.6 153.8 39.6 153.7 39.6L152.8 36.8C152.8 36.8 152.8 36.7 152.7 36.7L152.6 36.8L151.6 39.5V39.6H153.7Z" fill="#015FFF"/>
<path d="M82.2 53.7C82.2 52 82.2 51.7 82.2 51.4C82.2 51 82.1 50.9 81.7 50.8C81.6 50.8 81.4 50.8 81.3 50.8C81.2 50.8 81.1 50.8 81.1 50.7C81.1 50.6 81.2 50.6 81.3 50.6C81.9 50.6 82.6 50.6 82.9 50.6C83.2 50.6 83.9 50.6 84.2 50.6C84.4 50.6 84.4 50.6 84.4 50.7C84.4 50.8 84.3 50.8 84.2 50.8C84.1 50.8 84 50.8 83.9 50.8C83.6 50.9 83.5 51 83.5 51.4C83.5 51.7 83.5 52.1 83.5 53.7V55.2C83.5 56.8 83.8 57.5 84.4 57.9C84.9 58.3 85.4 58.3 85.8 58.3C86.3 58.3 86.9 58.1 87.3 57.7C87.9 57.1 87.9 56.1 87.9 55V53.6C87.9 51.9 87.9 51.6 87.9 51.3C87.9 50.9 87.8 50.8 87.4 50.7C87.3 50.7 87.1 50.7 87 50.7C86.9 50.7 86.8 50.7 86.8 50.6C86.8 50.5 86.9 50.5 87 50.5C87.6 50.5 88.2 50.5 88.3 50.5C88.4 50.5 89.1 50.5 89.5 50.5C89.7 50.5 89.7 50.5 89.7 50.6C89.7 50.7 89.6 50.7 89.5 50.7C89.4 50.7 89.3 50.7 89.2 50.7C89 50.8 89 51 88.9 51.4C88.9 51.7 88.9 52.1 88.9 53.7V54.9C88.9 56.1 88.8 57.4 87.9 58.2C87.1 58.9 86.3 59 85.6 59C85 59 84 59 83.2 58.2C82.6 57.7 82.2 56.9 82.2 55.3V53.7Z" fill="#015FFF"/>
<path d="M92.5 57.3C92.5 58.2 92.7 58.4 92.9 58.5C93.1 58.6 93.3 58.6 93.5 58.6C93.6 58.6 93.7 58.6 93.7 58.7C93.7 58.8 93.6 58.8 93.4 58.8C92.7 58.8 92.3 58.8 92 58.8C91.9 58.8 91.4 58.8 90.8 58.8C90.7 58.8 90.6 58.8 90.6 58.7C90.6 58.6 90.7 58.6 90.8 58.6C90.9 58.6 91.1 58.6 91.3 58.5C91.6 58.4 91.6 58.1 91.6 57.1L91.7 50.6C91.7 50.4 91.7 50.2 91.8 50.2C91.9 50.2 92 50.3 92.2 50.5C92.3 50.6 94 52.4 95.6 54C96.3 54.7 97.8 56.3 98 56.5H98.1L98 51.8C98 51.1 97.9 50.9 97.6 50.8C97.4 50.7 97.2 50.7 97 50.7C96.9 50.7 96.8 50.7 96.8 50.6C96.8 50.5 96.9 50.5 97.1 50.5C97.7 50.5 98.2 50.5 98.4 50.5C98.5 50.5 98.9 50.5 99.5 50.5C99.6 50.5 99.8 50.5 99.8 50.6C99.8 50.7 99.7 50.7 99.6 50.7C99.5 50.7 99.4 50.7 99.3 50.7C99 50.8 98.9 51 98.9 51.6L98.8 58.5C98.8 58.7 98.8 58.8 98.7 58.8C98.6 58.8 98.4 58.7 98.3 58.6C97.6 57.9 96.2 56.5 95.1 55.4C93.9 54.2 92.7 52.9 92.5 52.6V57.3Z" fill="#015FFF"/>
<path d="M102.5 53.7C102.5 52 102.5 51.7 102.5 51.4C102.5 51 102.4 50.8 102.1 50.8C102 50.8 101.8 50.8 101.7 50.8C101.6 50.8 101.5 50.8 101.5 50.7C101.5 50.6 101.6 50.6 101.8 50.6C102.2 50.6 102.9 50.6 103.2 50.6C103.5 50.6 104.1 50.6 104.5 50.6C104.6 50.6 104.7 50.6 104.7 50.7C104.7 50.8 104.6 50.8 104.5 50.8C104.4 50.8 104.3 50.8 104.2 50.8C103.9 50.9 103.8 51 103.8 51.4C103.8 51.7 103.8 52.1 103.8 53.7V55.6C103.8 56.7 103.8 57.5 103.8 58C103.8 58.3 103.9 58.5 104.2 58.5C104.4 58.5 104.6 58.5 104.8 58.5C104.9 58.5 105 58.5 105 58.6C105 58.7 104.9 58.7 104.8 58.7C104.1 58.7 103.4 58.7 103.1 58.7C102.8 58.7 102.2 58.7 101.7 58.7C101.6 58.7 101.5 58.7 101.5 58.6C101.5 58.5 101.5 58.5 101.7 58.5C101.9 58.5 102 58.5 102.1 58.5C102.3 58.5 102.4 58.3 102.4 58C102.5 57.5 102.5 56.7 102.5 55.6V53.7Z" fill="#015FFF"/>
<path d="M107.2 51.6C106.9 51 106.8 50.9 106.4 50.8C106.2 50.8 106.1 50.8 106 50.8C105.9 50.8 105.9 50.8 105.9 50.7C105.9 50.6 106 50.6 106.2 50.6C106.8 50.6 107.4 50.6 107.8 50.6C108.1 50.6 108.6 50.6 109.1 50.6C109.2 50.6 109.4 50.6 109.4 50.7C109.4 50.8 109.3 50.8 109.2 50.8C109 50.8 108.9 50.8 108.8 50.9C108.7 51 108.7 51 108.7 51.1C108.7 51.2 108.8 51.5 109 51.9L110.9 56.9C111.4 55.7 112.8 52.2 113.1 51.5C113.2 51.4 113.2 51.2 113.2 51.1C113.2 51 113.2 50.9 113.1 50.9C113 50.9 112.8 50.8 112.7 50.8C112.6 50.8 112.5 50.8 112.5 50.7C112.5 50.6 112.6 50.6 112.8 50.6C113.3 50.6 113.8 50.6 113.9 50.6C114.1 50.6 114.6 50.6 114.9 50.6C115 50.6 115.1 50.6 115.1 50.7C115.1 50.8 115 50.8 114.9 50.8C114.8 50.8 114.6 50.8 114.4 50.9C114.3 51 114.1 51.2 113.8 51.9C113.4 52.9 113.1 53.5 112.5 54.9C111.8 56.5 111.3 57.7 111 58.2C110.7 58.8 110.6 59 110.5 59C110.4 59 110.3 58.8 110.1 58.3L107.2 51.6Z" fill="#015FFF"/>
<path d="M117 53.7C117 52 117 51.7 117 51.4C117 51 116.9 50.9 116.5 50.8C116.4 50.8 116.2 50.8 116.1 50.8C116 50.8 115.9 50.8 115.9 50.7C115.9 50.6 116 50.6 116.1 50.6C116.7 50.6 117.4 50.6 117.7 50.6C118.1 50.6 120.2 50.6 120.4 50.6C120.6 50.6 120.8 50.6 120.9 50.5C121 50.5 121 50.5 121.1 50.5C121.2 50.5 121.2 50.5 121.2 50.6C121.2 50.7 121.1 50.8 121.1 51.3C121.1 51.4 121.1 51.9 121 52C121 52.1 121 52.1 120.9 52.1C120.8 52.1 120.8 52 120.8 51.9C120.8 51.8 120.8 51.6 120.7 51.5C120.6 51.3 120.5 51.2 120 51.1C119.8 51.1 118.7 51.1 118.4 51.1C118.3 51.1 118.3 51.1 118.3 51.2V54C118.3 54.1 118.3 54.1 118.4 54.1C118.6 54.1 119.9 54.1 120.2 54.1C120.5 54.1 120.6 54 120.7 53.9C120.8 53.8 120.8 53.8 120.9 53.8C120.9 53.8 121 53.8 121 53.9C121 54 120.9 54.1 120.9 54.7C120.9 54.9 120.9 55.4 120.9 55.4C120.9 55.5 120.9 55.6 120.8 55.6C120.7 55.6 120.7 55.6 120.7 55.5C120.7 55.4 120.7 55.2 120.7 55.1C120.6 54.9 120.5 54.7 120.1 54.7C119.9 54.7 118.8 54.7 118.5 54.7C118.4 54.7 118.4 54.7 118.4 54.8V55.7C118.4 56.1 118.4 57.1 118.4 57.4C118.4 58.2 118.6 58.3 119.7 58.3C120 58.3 120.4 58.3 120.7 58.2C121 58.1 121.1 57.8 121.2 57.4C121.2 57.3 121.2 57.2 121.3 57.2C121.4 57.2 121.4 57.3 121.4 57.4C121.4 57.7 121.3 58.4 121.3 58.6C121.2 58.9 121.1 58.9 120.7 58.9C119 58.9 118.3 58.8 117.7 58.8C117.4 58.8 116.8 58.8 116.3 58.8C116.2 58.8 116.1 58.8 116.1 58.7C116.1 58.6 116.1 58.6 116.3 58.6C116.5 58.6 116.6 58.6 116.7 58.6C116.9 58.6 117 58.3 117 58C117.1 57.5 117.1 56.7 117.1 55.7V53.7H117Z" fill="#015FFF"/>
<path d="M124 53.7C124 52 124 51.7 124 51.4C124 51 123.9 50.9 123.5 50.8C123.4 50.8 123.2 50.8 123.1 50.8C123 50.8 122.9 50.8 122.9 50.7C122.9 50.6 123 50.6 123.1 50.6C123.7 50.6 124.4 50.6 124.6 50.6C125 50.6 125.8 50.6 126.1 50.6C126.8 50.6 127.5 50.7 128.1 51.1C128.4 51.3 128.8 51.9 128.8 52.6C128.8 53.4 128.5 54.2 127.4 55.1C128.4 56.3 129.1 57.3 129.8 58C130.4 58.6 130.9 58.7 131 58.7C131.1 58.7 131.2 58.7 131.3 58.7C131.4 58.7 131.4 58.7 131.4 58.8C131.4 58.9 131.3 58.9 131.2 58.9H130.2C129.6 58.9 129.3 58.8 129 58.7C128.5 58.4 128.1 57.9 127.5 57.1C127.1 56.5 126.6 55.8 126.4 55.6C126.3 55.5 126.3 55.5 126.2 55.5H125.2C125.1 55.5 125.1 55.5 125.1 55.6V55.8C125.1 56.8 125.1 57.7 125.2 58.1C125.2 58.4 125.3 58.7 125.6 58.7C125.8 58.7 126 58.7 126.1 58.7C126.2 58.7 126.2 58.7 126.2 58.8C126.2 58.9 126.1 58.9 126 58.9C125.4 58.9 124.6 58.9 124.4 58.9C124.2 58.9 123.5 58.9 123.1 58.9C123 58.9 122.9 58.9 122.9 58.8C122.9 58.7 122.9 58.7 123.1 58.7C123.3 58.7 123.4 58.7 123.5 58.7C123.7 58.7 123.8 58.4 123.8 58.1C123.9 57.6 123.9 56.8 123.9 55.8V53.7H124ZM125.3 54.5C125.3 54.6 125.3 54.7 125.4 54.7C125.6 54.8 126 54.8 126.2 54.8C126.6 54.8 126.8 54.8 127 54.6C127.3 54.4 127.6 53.9 127.6 53C127.6 51.4 126.6 51 125.9 51C125.6 51 125.4 51 125.3 51C125.2 51 125.2 51.1 125.2 51.2V54.5H125.3Z" fill="#015FFF"/>
<path d="M132.6 58.6C132.4 58.5 132.4 58.5 132.4 58.2C132.4 57.6 132.4 56.9 132.5 56.8C132.5 56.6 132.5 56.5 132.6 56.5C132.7 56.5 132.7 56.6 132.7 56.7C132.7 56.8 132.7 57.1 132.8 57.3C133 58.1 133.7 58.4 134.4 58.4C135.4 58.4 135.9 57.7 135.9 57.2C135.9 56.7 135.7 56.1 134.8 55.4L134.3 55C133.1 54.1 132.7 53.3 132.7 52.4C132.7 51.2 133.7 50.3 135.2 50.3C135.9 50.3 136.4 50.4 136.7 50.5C136.8 50.5 136.9 50.6 136.9 50.6C136.9 50.7 136.9 51.1 136.9 51.9C136.9 52.1 136.9 52.2 136.8 52.2C136.7 52.2 136.7 52.1 136.7 52C136.7 51.9 136.6 51.6 136.4 51.3C136.2 51.1 135.9 50.8 135.2 50.8C134.4 50.8 133.9 51.3 133.9 51.9C133.9 52.4 134.2 52.8 135.1 53.5L135.4 53.7C136.7 54.7 137.2 55.5 137.2 56.5C137.2 57.1 137 57.9 136.2 58.4C135.7 58.8 135 58.8 134.5 58.8C133.6 58.9 133.1 58.9 132.6 58.6Z" fill="#015FFF"/>
<path d="M139.6 53.7C139.6 52 139.6 51.7 139.6 51.4C139.6 51 139.5 50.8 139.2 50.8C139.1 50.8 138.9 50.8 138.8 50.8C138.7 50.8 138.6 50.8 138.6 50.7C138.6 50.6 138.7 50.6 138.9 50.6C139.3 50.6 140 50.6 140.3 50.6C140.6 50.6 141.2 50.6 141.6 50.6C141.7 50.6 141.8 50.6 141.8 50.7C141.8 50.8 141.7 50.8 141.6 50.8C141.5 50.8 141.4 50.8 141.3 50.8C141 50.9 140.9 51 140.9 51.4C140.9 51.7 140.9 52.1 140.9 53.7V55.6C140.9 56.7 140.9 57.5 140.9 58C140.9 58.3 141 58.5 141.3 58.5C141.5 58.5 141.7 58.5 141.9 58.5C142 58.5 142.1 58.5 142.1 58.6C142.1 58.7 142 58.7 141.9 58.7C141.2 58.7 140.5 58.7 140.2 58.7C139.9 58.7 139.3 58.7 138.8 58.7C138.7 58.7 138.6 58.7 138.6 58.6C138.6 58.5 138.6 58.5 138.8 58.5C139 58.5 139.1 58.5 139.2 58.5C139.4 58.5 139.5 58.3 139.5 58C139.6 57.5 139.6 56.7 139.6 55.6V53.7Z" fill="#015FFF"/>
<path d="M144.7 53.7C144.7 52 144.7 51.7 144.7 51.4C144.7 51 144.6 50.9 144.2 50.8C144.1 50.8 143.9 50.8 143.8 50.8C143.7 50.8 143.6 50.8 143.6 50.7C143.6 50.6 143.7 50.6 143.8 50.6C144.4 50.6 145.1 50.6 145.4 50.6C145.7 50.6 146.4 50.6 147.1 50.6C148.5 50.6 150.3 50.6 151.5 51.8C152 52.4 152.6 53.3 152.6 54.6C152.6 56 152 57 151.4 57.7C150.9 58.2 149.8 59 147.7 59C146.9 59 145.9 58.9 145.4 58.9C145.1 58.9 144.5 58.9 144 58.9C143.9 58.9 143.8 58.9 143.8 58.8C143.8 58.7 143.8 58.7 144 58.7C144.2 58.7 144.3 58.7 144.4 58.7C144.6 58.7 144.7 58.4 144.7 58.1C144.8 57.6 144.8 56.8 144.8 55.8V53.7H144.7ZM146.1 54.9C146.1 56.1 146.1 56.9 146.1 57.1C146.1 57.4 146.1 57.8 146.2 57.9C146.3 58.1 146.8 58.3 147.6 58.3C148.7 58.3 149.5 58.1 150.1 57.5C150.8 56.9 151 55.9 151 54.8C151 53.4 150.4 52.5 150 52.1C149 51.1 147.7 51 146.9 51C146.7 51 146.3 51 146.2 51.1C146.1 51.1 146.1 51.2 146.1 51.3C146.1 51.7 146.1 52.6 146.1 53.5V54.9Z" fill="#015FFF"/>
<path d="M155.4 55.9C155.3 55.9 155.3 55.9 155.4 55.9L154.7 57.6C154.6 57.9 154.5 58.1 154.5 58.3C154.5 58.5 154.6 58.6 154.9 58.6H155.1C155.2 58.6 155.3 58.6 155.3 58.7C155.3 58.8 155.2 58.8 155.1 58.8C154.8 58.8 154.3 58.8 153.9 58.8C153.8 58.8 153.2 58.8 152.6 58.8C152.5 58.8 152.4 58.8 152.4 58.7C152.4 58.6 152.4 58.6 152.5 58.6C152.6 58.6 152.8 58.6 152.8 58.6C153.3 58.5 153.5 58.2 153.7 57.6L156.4 50.7C156.5 50.4 156.6 50.3 156.7 50.3C156.8 50.3 156.9 50.4 157 50.6C157.3 51.2 159 55.7 159.7 57.3C160.1 58.3 160.4 58.4 160.7 58.5C160.9 58.5 161 58.5 161.2 58.5C161.3 58.5 161.3 58.5 161.3 58.6C161.3 58.7 161.2 58.7 160.8 58.7C160.4 58.7 159.6 58.7 158.7 58.7C158.5 58.7 158.4 58.7 158.4 58.6C158.4 58.5 158.4 58.5 158.6 58.5C158.7 58.5 158.8 58.4 158.7 58.2L157.8 55.9C157.8 55.8 157.7 55.8 157.7 55.8H155.4V55.9ZM157.6 55.4C157.7 55.3 157.7 55.4 157.6 55.4L156.7 52.6C156.7 52.6 156.7 52.5 156.6 52.5L156.5 52.6L155.5 55.3V55.4H157.6Z" fill="#015FFF"/>
<path d="M163.4 53.7C163.4 52 163.4 51.7 163.4 51.4C163.4 51 163.3 50.9 162.9 50.8C162.8 50.8 162.6 50.8 162.5 50.8C162.4 50.8 162.3 50.8 162.3 50.7C162.3 50.6 162.4 50.6 162.5 50.6C163.1 50.6 163.8 50.6 164.1 50.6C164.4 50.6 165.1 50.6 165.8 50.6C167.2 50.6 169 50.6 170.2 51.8C170.7 52.4 171.3 53.3 171.3 54.6C171.3 56 170.7 57 170.1 57.7C169.6 58.2 168.5 59 166.4 59C165.6 59 164.6 58.9 164.1 58.9C163.8 58.9 163.2 58.9 162.7 58.9C162.6 58.9 162.5 58.9 162.5 58.8C162.5 58.7 162.5 58.7 162.7 58.7C162.9 58.7 163 58.7 163.1 58.7C163.3 58.7 163.4 58.4 163.4 58.1C163.5 57.6 163.5 56.8 163.5 55.8V53.7H163.4ZM164.8 54.9C164.8 56.1 164.8 56.9 164.8 57.1C164.8 57.4 164.8 57.8 164.9 57.9C165 58.1 165.5 58.3 166.3 58.3C167.4 58.3 168.2 58.1 168.8 57.5C169.5 56.9 169.7 55.9 169.7 54.8C169.7 53.4 169.1 52.5 168.6 52.1C167.6 51.1 166.3 51 165.5 51C165.3 51 164.9 51 164.8 51.1C164.7 51.1 164.7 51.2 164.7 51.3C164.7 51.7 164.7 52.6 164.7 53.5V54.9H164.8Z" fill="#015FFF"/>
<path d="M82.8 73.5C81.7 72.6 81.4 71.3 81.4 70.3C81.4 69.6 81.6 68.3 82.7 67.3C83.5 66.6 84.5 66.1 86.2 66.1C86.9 66.1 87.3 66.1 87.8 66.2C88.2 66.3 88.6 66.4 88.9 66.4C89 66.4 89.1 66.5 89.1 66.5C89.1 66.6 89.1 66.7 89 67.1C89 67.5 89 68.1 89 68.3C89 68.5 89 68.6 88.9 68.6C88.8 68.6 88.8 68.5 88.8 68.4C88.8 68.1 88.6 67.7 88.4 67.4C88 67 87.2 66.7 86.2 66.7C85.2 66.7 84.6 66.9 84.1 67.4C83.3 68.1 83.1 69.2 83.1 70.2C83.1 72.8 85.1 74.1 86.5 74.1C87.5 74.1 88.1 74 88.5 73.5C88.7 73.3 88.8 73 88.9 72.8C88.9 72.6 89 72.6 89 72.6C89.1 72.6 89.1 72.7 89.1 72.8C89.1 72.9 89 73.9 88.9 74.3C88.8 74.5 88.8 74.5 88.6 74.6C88.2 74.8 87.3 74.9 86.6 74.9C85.1 74.7 83.8 74.3 82.8 73.5Z" fill="#015FFF"/>
<path d="M92.7 71.7L92 73.3C91.9 73.6 91.8 73.8 91.8 74C91.8 74.2 91.9 74.3 92.2 74.3H92.4C92.5 74.3 92.6 74.3 92.6 74.4C92.6 74.5 92.5 74.5 92.4 74.5C92.1 74.5 91.6 74.5 91.2 74.5C91.1 74.5 90.5 74.5 89.9 74.5C89.8 74.5 89.7 74.5 89.7 74.4C89.7 74.3 89.7 74.3 89.8 74.3C89.9 74.3 90.1 74.3 90.1 74.3C90.6 74.2 90.8 73.9 91 73.3L93.7 66.4C93.8 66.1 93.9 66 94 66C94.1 66 94.2 66.1 94.3 66.3C94.6 66.9 96.3 71.4 97 73C97.4 74 97.7 74.1 98 74.2C98.2 74.2 98.3 74.2 98.5 74.2C98.6 74.2 98.6 74.2 98.6 74.3C98.6 74.4 98.5 74.4 98.1 74.4C97.7 74.4 96.9 74.4 96 74.4C95.8 74.4 95.7 74.4 95.7 74.3C95.7 74.2 95.7 74.2 95.9 74.2C96 74.2 96.1 74.1 96 73.9L95.1 71.6C95.1 71.5 95 71.5 95 71.5H92.7V71.7ZM94.9 71.1C95 71.1 95 71.1 94.9 71.1L94 68.4C94 68.4 94 68.3 93.9 68.3L93.8 68.4L92.8 71.1V71.2H94.9V71.1Z" fill="#015FFF"/>
<path d="M101.5 66.9H99.9C99.3 66.9 99 67 98.8 67.2C98.7 67.4 98.6 67.5 98.6 67.6C98.6 67.7 98.5 67.7 98.5 67.7C98.4 67.7 98.4 67.6 98.4 67.5C98.4 67.3 98.6 66.3 98.6 66.2C98.6 66.1 98.7 66 98.7 66C98.8 66 98.9 66.1 99.2 66.1C99.5 66.1 99.9 66.2 100.3 66.2H104.6C105.3 66.2 105.6 66.1 105.6 66.1C105.7 66.1 105.7 66.2 105.7 66.3C105.7 66.5 105.7 67.3 105.7 67.6C105.7 67.7 105.7 67.8 105.6 67.8C105.5 67.8 105.5 67.7 105.5 67.6V67.5C105.5 67.2 105.2 66.9 104.2 66.9H102.8V71.4C102.8 72.4 102.8 73.3 102.9 73.7C102.9 74 103 74.2 103.3 74.3C103.5 74.3 103.7 74.3 103.9 74.3C104 74.3 104.1 74.3 104.1 74.4C104.1 74.5 104 74.5 103.9 74.5C103.2 74.5 102.5 74.5 102.2 74.5C101.9 74.5 101.3 74.5 100.8 74.5C100.7 74.5 100.6 74.5 100.6 74.4C100.6 74.3 100.6 74.3 100.8 74.3C101 74.3 101.1 74.3 101.2 74.3C101.4 74.3 101.5 74 101.5 73.7C101.6 73.2 101.6 72.4 101.6 71.4V66.9H101.5Z" fill="#015FFF"/>
<path d="M106.7 70.4C106.7 68.5 107.9 66.1 111.2 66.1C113.9 66.1 115.6 67.7 115.6 70.2C115.6 72.7 113.8 74.7 111.1 74.7C108 74.7 106.7 72.3 106.7 70.4ZM114.1 70.6C114.1 68.1 112.7 66.6 110.9 66.6C109.6 66.6 108.2 67.3 108.2 70C108.2 72.3 109.5 74.1 111.6 74.1C112.4 74.1 114.1 73.8 114.1 70.6ZM113 64.5C113.1 64.6 113 64.7 112.9 64.7C112.8 64.7 112.7 64.7 112.5 64.7C111.9 64.8 111 65.1 110.6 65.3C110.5 65.3 110.4 65.4 110.4 65.4C110.4 65.4 110.3 65.4 110.3 65.3C110.3 65.3 110.3 65.2 110.4 65.2C110.8 64.8 112 63.9 112.2 63.8C112.3 63.7 112.4 63.7 112.4 63.7C112.5 63.7 112.5 63.7 112.6 63.8C112.8 64 112.9 64.2 113 64.5Z" fill="#015FFF"/>
<path d="M119.4 71.4C119.4 72.8 119.4 73.6 119.6 73.8C119.8 74 120.1 74 120.9 74C121.5 74 121.9 74 122.2 73.7C122.3 73.6 122.5 73.3 122.5 73C122.5 72.9 122.5 72.8 122.6 72.8C122.7 72.8 122.7 72.9 122.7 73C122.7 73.1 122.6 73.9 122.5 74.3C122.4 74.5 122.4 74.6 121.8 74.6C120.2 74.6 119.5 74.5 118.6 74.5C118.3 74.5 117.7 74.5 117.2 74.5C117.1 74.5 117 74.5 117 74.4C117 74.3 117 74.3 117.2 74.3C117.4 74.3 117.5 74.3 117.6 74.3C117.8 74.3 117.9 74 117.9 73.7C118 73.2 118 72.4 118 71.4V69.5C118 67.8 118 67.5 118 67.2C118 66.8 117.9 66.7 117.5 66.6C117.4 66.6 117.3 66.6 117.1 66.6C117 66.6 116.9 66.6 116.9 66.5C116.9 66.4 117 66.4 117.1 66.4C117.6 66.4 118.3 66.4 118.6 66.4C118.9 66.4 119.7 66.4 120.1 66.4C120.3 66.4 120.3 66.4 120.3 66.5C120.3 66.6 120.2 66.6 120.1 66.6C120 66.6 119.8 66.6 119.7 66.6C119.4 66.7 119.3 66.8 119.3 67.2C119.3 67.5 119.3 67.9 119.3 69.5V71.4H119.4Z" fill="#015FFF"/>
<path d="M125 69.4C125 67.7 125 67.4 125 67.1C125 66.7 124.9 66.5 124.6 66.5C124.5 66.5 124.3 66.5 124.2 66.5C124.1 66.5 124 66.5 124 66.4C124 66.3 124.1 66.3 124.3 66.3C124.7 66.3 125.4 66.3 125.7 66.3C126 66.3 126.6 66.3 127 66.3C127.1 66.3 127.2 66.3 127.2 66.4C127.2 66.5 127.1 66.5 127 66.5C126.9 66.5 126.8 66.5 126.7 66.5C126.4 66.6 126.3 66.7 126.3 67.1C126.3 67.4 126.3 67.8 126.3 69.4V71.3C126.3 72.4 126.3 73.2 126.3 73.7C126.3 74 126.4 74.2 126.7 74.2C126.9 74.2 127.1 74.2 127.3 74.2C127.4 74.2 127.5 74.2 127.5 74.3C127.5 74.4 127.4 74.4 127.3 74.4C126.6 74.4 125.9 74.4 125.6 74.4C125.3 74.4 124.7 74.4 124.2 74.4C124.1 74.4 124 74.4 124 74.3C124 74.2 124 74.2 124.2 74.2C124.4 74.2 124.5 74.2 124.6 74.2C124.8 74.2 124.9 74 124.9 73.7C125 73.2 125 72.4 125 71.3V69.4Z" fill="#015FFF"/>
<path d="M130 73.5C128.9 72.6 128.6 71.3 128.6 70.3C128.6 69.6 128.8 68.3 129.9 67.3C130.7 66.6 131.7 66.1 133.4 66.1C134.1 66.1 134.5 66.1 135 66.2C135.4 66.3 135.8 66.4 136.1 66.4C136.2 66.4 136.3 66.5 136.3 66.5C136.3 66.6 136.3 66.7 136.2 67.1C136.2 67.5 136.2 68.1 136.2 68.3C136.2 68.5 136.2 68.6 136.1 68.6C136 68.6 136 68.5 136 68.4C136 68.1 135.8 67.7 135.6 67.4C135.2 67 134.4 66.7 133.4 66.7C132.4 66.7 131.8 66.9 131.3 67.4C130.5 68.1 130.3 69.2 130.3 70.2C130.3 72.8 132.3 74.1 133.7 74.1C134.7 74.1 135.3 74 135.7 73.5C135.9 73.3 136 73 136.1 72.8C136.1 72.6 136.2 72.6 136.2 72.6C136.3 72.6 136.3 72.7 136.3 72.8C136.3 72.9 136.2 73.9 136.1 74.3C136 74.5 136 74.5 135.8 74.6C135.4 74.8 134.5 74.9 133.8 74.9C132.3 74.7 131 74.3 130 73.5Z" fill="#015FFF"/>
<path d="M139.9 71.7C139.8 71.7 139.8 71.7 139.9 71.7L139.2 73.4C139.1 73.7 139 73.9 139 74.1C139 74.3 139.1 74.4 139.4 74.4H139.6C139.7 74.4 139.8 74.4 139.8 74.5C139.8 74.6 139.7 74.6 139.6 74.6C139.3 74.6 138.8 74.6 138.4 74.6C138.3 74.6 137.7 74.6 137.1 74.6C137 74.6 136.9 74.6 136.9 74.5C136.9 74.4 136.9 74.4 137 74.4C137.1 74.4 137.3 74.4 137.3 74.4C137.8 74.3 138 74 138.2 73.4L140.9 66.5C141 66.2 141.1 66.1 141.2 66.1C141.3 66.1 141.4 66.2 141.5 66.4C141.8 67 143.5 71.5 144.2 73.1C144.6 74.1 144.9 74.2 145.2 74.3C145.4 74.3 145.5 74.3 145.7 74.3C145.8 74.3 145.8 74.3 145.8 74.4C145.8 74.5 145.7 74.5 145.3 74.5C144.9 74.5 144.1 74.5 143.2 74.5C143 74.5 142.9 74.5 142.9 74.4C142.9 74.3 142.9 74.3 143.1 74.3C143.2 74.3 143.3 74.2 143.2 74L142.3 71.7C142.3 71.6 142.2 71.6 142.2 71.6H139.9V71.7ZM142.1 71.1C142.2 71.1 142.2 71.1 142.1 71.1L141.2 68.3C141.2 68.3 141.2 68.2 141.1 68.2L141 68.3L140 71V71.1H142.1Z" fill="#015FFF"/>
<path d="M82.7 85.2C82.7 83.5 82.7 83.2 82.7 82.9C82.7 82.5 82.6 82.4 82.2 82.3C82.1 82.3 81.9 82.3 81.8 82.3C81.7 82.3 81.6 82.3 81.6 82.2C81.6 82.1 81.7 82.1 81.8 82.1C82.4 82.1 83.1 82.1 83.4 82.1C83.7 82.1 84.4 82.1 85.1 82.1C86.5 82.1 88.3 82.1 89.5 83.3C90 83.9 90.6 84.8 90.6 86.1C90.6 87.5 90 88.5 89.4 89.2C88.9 89.7 87.8 90.5 85.7 90.5C84.9 90.5 83.9 90.4 83.4 90.4C83.1 90.4 82.5 90.4 82 90.4C81.9 90.4 81.8 90.4 81.8 90.3C81.8 90.2 81.8 90.2 82 90.2C82.2 90.2 82.3 90.2 82.4 90.2C82.6 90.2 82.7 89.9 82.7 89.6C82.8 89.1 82.8 88.3 82.8 87.3V85.2H82.7ZM84 86.4C84 87.6 84 88.4 84 88.6C84 88.9 84 89.3 84.1 89.4C84.2 89.6 84.7 89.8 85.5 89.8C86.6 89.8 87.4 89.6 88 89C88.7 88.4 88.9 87.4 88.9 86.3C88.9 84.9 88.3 84 87.8 83.6C86.8 82.6 85.5 82.5 84.7 82.5C84.5 82.5 84.1 82.5 84 82.6C83.9 82.6 83.9 82.7 83.9 82.8C83.9 83.2 83.9 84.1 83.9 85V86.4H84Z" fill="#015FFF"/>
<path d="M92.8 85.2C92.8 83.5 92.8 83.2 92.8 82.9C92.8 82.5 92.7 82.4 92.3 82.3C92.2 82.3 92 82.3 91.9 82.3C91.8 82.3 91.7 82.3 91.7 82.2C91.7 82.1 91.8 82.1 91.9 82.1C92.5 82.1 93.2 82.1 93.5 82.1C93.9 82.1 96 82.1 96.2 82.1C96.4 82.1 96.6 82.1 96.7 82C96.8 82 96.8 82 96.9 82C97 82 97 82 97 82.1C97 82.2 96.9 82.3 96.9 82.8C96.9 82.9 96.9 83.4 96.8 83.5C96.8 83.6 96.8 83.6 96.7 83.6C96.6 83.6 96.6 83.5 96.6 83.4C96.6 83.3 96.6 83.1 96.5 83C96.4 82.8 96.3 82.7 95.8 82.6C95.6 82.6 94.5 82.6 94.2 82.6C94.1 82.6 94.1 82.6 94.1 82.7V85.5C94.1 85.6 94.1 85.6 94.2 85.6C94.4 85.6 95.7 85.6 96 85.6C96.3 85.6 96.4 85.5 96.5 85.4C96.6 85.3 96.6 85.3 96.7 85.3C96.7 85.3 96.8 85.3 96.8 85.4C96.8 85.5 96.7 85.6 96.7 86.2C96.7 86.4 96.7 86.9 96.7 86.9C96.7 87 96.7 87.1 96.6 87.1C96.5 87.1 96.5 87.1 96.5 87C96.5 86.9 96.5 86.7 96.5 86.6C96.4 86.4 96.3 86.2 95.9 86.2C95.7 86.2 94.6 86.2 94.3 86.2C94.2 86.2 94.2 86.2 94.2 86.3V87.2C94.2 87.6 94.2 88.6 94.2 88.9C94.2 89.7 94.4 89.8 95.5 89.8C95.8 89.8 96.2 89.8 96.5 89.7C96.8 89.6 96.9 89.3 97 88.9C97 88.8 97 88.7 97.1 88.7C97.2 88.7 97.2 88.8 97.2 88.9C97.2 89.2 97.1 89.9 97.1 90.1C97 90.4 96.9 90.4 96.5 90.4C94.8 90.4 94.1 90.3 93.5 90.3C93.2 90.3 92.6 90.3 92.1 90.3C92 90.3 91.9 90.3 91.9 90.2C91.9 90.1 91.9 90.1 92.1 90.1C92.3 90.1 92.4 90.1 92.5 90.1C92.7 90.1 92.8 89.8 92.8 89.5C92.9 89 92.9 88.2 92.9 87.2V85.2H92.8Z" fill="#015FFF"/>
<path d="M103.7 89.2C102.6 88.3 102.3 87 102.3 86C102.3 85.3 102.5 84 103.6 83C104.4 82.3 105.4 81.8 107.1 81.8C107.8 81.8 108.2 81.8 108.7 81.9C109.1 82 109.5 82.1 109.8 82.1C109.9 82.1 110 82.2 110 82.2C110 82.3 110 82.4 109.9 82.8C109.9 83.2 109.9 83.8 109.9 84C109.9 84.2 109.9 84.3 109.8 84.3C109.7 84.3 109.7 84.2 109.7 84.1C109.7 83.8 109.5 83.4 109.3 83.1C108.9 82.7 108.1 82.4 107.1 82.4C106.1 82.4 105.5 82.6 105 83.1C104.2 83.8 104 84.9 104 85.9C104 88.5 106 89.8 107.4 89.8C108.4 89.8 109 89.7 109.4 89.2C109.6 89 109.7 88.7 109.8 88.5C109.8 88.3 109.9 88.3 109.9 88.3C110 88.3 110 88.4 110 88.5C110 88.6 109.9 89.6 109.8 90C109.7 90.2 109.7 90.2 109.5 90.3C109.1 90.5 108.2 90.6 107.5 90.6C105.9 90.4 104.7 90.1 103.7 89.2Z" fill="#015FFF"/>
<path d="M118.2 85.5L118.3 85.2C118.3 83.5 118.3 83.2 118.3 82.9C118.3 82.5 118.2 82.4 117.8 82.3C117.7 82.3 117.5 82.3 117.4 82.3C117.3 82.3 117.2 82.3 117.2 82.2C117.2 82.1 117.3 82.1 117.4 82.1C118 82.1 118.7 82.1 119 82.1C119.3 82.1 120 82.1 120.4 82.1C120.6 82.1 120.6 82.1 120.6 82.2C120.6 82.3 120.5 82.3 120.4 82.3C120.3 82.3 120.2 82.3 120.1 82.3C119.8 82.4 119.7 82.5 119.7 82.9C119.7 83.2 119.7 83.6 119.7 85.2V87.1C119.7 88.1 119.7 89 119.8 89.4C119.8 89.7 119.9 89.9 120.2 90C120.4 90 120.6 90 120.8 90C120.9 90 121 90 121 90.1C121 90.2 120.9 90.2 120.8 90.2C120.1 90.2 119.4 90.2 119.1 90.2C118.8 90.2 118.2 90.2 117.7 90.2C117.5 90.2 117.5 90.2 117.5 90.1C117.5 90 117.5 90 117.7 90C117.9 90 118 90 118.1 90C118.3 90 118.4 89.7 118.4 89.4C118.5 88.9 118.5 88.1 118.5 87.1V86.1C118.5 86.1 118.5 86 118.4 86H114C114 86 113.9 86 113.9 86.1V87.1C113.9 88.1 113.9 89 114 89.4C114 89.7 114.1 89.9 114.4 90C114.6 90 114.8 90 115 90C115.1 90 115.2 90 115.2 90.1C115.2 90.2 115.1 90.2 115 90.2C114.3 90.2 113.6 90.2 113.3 90.2C113 90.2 112.4 90.2 111.9 90.2C111.8 90.2 111.7 90.2 111.7 90.1C111.7 90 111.7 90 111.9 90C112.1 90 112.2 90 112.3 90C112.5 90 112.6 89.7 112.6 89.4C112.7 88.9 112.7 88.1 112.7 87.1V85.2C112.7 83.5 112.7 83.2 112.7 82.9C112.7 82.5 112.6 82.4 112.2 82.3C112.1 82.3 111.9 82.3 111.8 82.3C111.7 82.3 111.6 82.3 111.6 82.2C111.6 82.1 111.7 82.1 111.8 82.1C112.4 82.1 113.1 82.1 113.4 82.1C113.7 82.1 114.4 82.1 114.8 82.1C115 82.1 115 82.1 115 82.2C115 82.3 114.9 82.3 114.8 82.3C114.7 82.3 114.6 82.3 114.5 82.3C114.2 82.4 114.1 82.5 114.1 82.9C114.1 83.2 114.1 83.6 114.1 85.2V85.4C114.1 85.5 114.1 85.5 114.2 85.5H118.2Z" fill="#015FFF"/>
<path d="M123.4 85.2C123.4 83.5 123.4 83.2 123.4 82.9C123.4 82.5 123.3 82.3 123 82.3C122.9 82.3 122.7 82.3 122.6 82.3C122.5 82.3 122.4 82.3 122.4 82.2C122.4 82.1 122.5 82.1 122.7 82.1C123.1 82.1 123.8 82.1 124.1 82.1C124.4 82.1 125 82.1 125.4 82.1C125.5 82.1 125.6 82.1 125.6 82.2C125.6 82.3 125.5 82.3 125.4 82.3C125.3 82.3 125.2 82.3 125.1 82.3C124.8 82.4 124.7 82.5 124.7 82.9C124.7 83.2 124.7 83.6 124.7 85.2V87.1C124.7 88.2 124.7 89 124.7 89.5C124.7 89.8 124.8 90 125.1 90C125.3 90 125.5 90 125.7 90C125.8 90 125.9 90 125.9 90.1C125.9 90.2 125.8 90.2 125.7 90.2C125 90.2 124.3 90.2 124 90.2C123.7 90.2 123.1 90.2 122.6 90.2C122.5 90.2 122.4 90.2 122.4 90.1C122.4 90 122.4 90 122.6 90C122.8 90 122.9 90 123 90C123.2 90 123.3 89.8 123.3 89.5C123.4 89 123.4 88.2 123.4 87.1V85.2Z" fill="#015FFF"/>
<path d="M129.9 87.1C129.9 88.5 129.9 89.3 130.1 89.5C130.3 89.7 130.6 89.7 131.4 89.7C132 89.7 132.4 89.7 132.7 89.4C132.8 89.3 133 89 133 88.7C133 88.6 133 88.5 133.1 88.5C133.2 88.5 133.2 88.6 133.2 88.7C133.2 88.8 133.1 89.6 133 90C132.9 90.2 132.9 90.3 132.3 90.3C130.7 90.3 130 90.2 129.1 90.2C128.8 90.2 128.2 90.2 127.7 90.2C127.6 90.2 127.5 90.2 127.5 90.1C127.5 90 127.5 90 127.7 90C127.9 90 128 90 128.1 90C128.3 90 128.4 89.7 128.4 89.4C128.5 88.9 128.5 88.1 128.5 87.1V85.2C128.5 83.5 128.5 83.2 128.5 82.9C128.5 82.5 128.4 82.4 128 82.3C127.9 82.3 127.8 82.3 127.6 82.3C127.5 82.3 127.4 82.3 127.4 82.2C127.4 82.1 127.5 82.1 127.6 82.1C128.1 82.1 128.8 82.1 129.1 82.1C129.4 82.1 130.2 82.1 130.6 82.1C130.8 82.1 130.8 82.1 130.8 82.2C130.8 82.3 130.7 82.3 130.6 82.3C130.5 82.3 130.3 82.3 130.2 82.3C129.9 82.4 129.8 82.5 129.8 82.9C129.8 83.2 129.8 83.6 129.8 85.2V87.1H129.9Z" fill="#015FFF"/>
<path d="M135.5 85.2C135.5 83.5 135.5 83.2 135.5 82.9C135.5 82.5 135.4 82.4 135 82.3C134.9 82.3 134.7 82.3 134.6 82.3C134.5 82.3 134.4 82.3 134.4 82.2C134.4 82.1 134.5 82.1 134.6 82.1C135.2 82.1 135.9 82.1 136.2 82.1C136.5 82.1 138.7 82.1 138.9 82.1C139.1 82.1 139.3 82.1 139.4 82C139.5 82 139.5 82 139.6 82C139.7 82 139.7 82 139.7 82.1C139.7 82.2 139.6 82.3 139.6 82.8C139.6 82.9 139.6 83.4 139.5 83.5C139.5 83.6 139.5 83.6 139.4 83.6C139.3 83.6 139.3 83.5 139.3 83.4C139.3 83.3 139.3 83.1 139.2 83C139.1 82.8 139 82.7 138.5 82.6C138.3 82.6 137.2 82.6 136.9 82.6C136.8 82.6 136.8 82.6 136.8 82.7V85.5C136.8 85.6 136.8 85.6 136.9 85.6C137.1 85.6 138.4 85.6 138.7 85.6C139 85.6 139.1 85.5 139.2 85.4C139.3 85.3 139.3 85.3 139.4 85.3C139.4 85.3 139.5 85.3 139.5 85.4C139.5 85.5 139.4 85.6 139.4 86.2C139.4 86.4 139.4 86.9 139.4 86.9C139.4 87 139.4 87.1 139.3 87.1C139.2 87.1 139.2 87.1 139.2 87C139.2 86.9 139.2 86.7 139.2 86.6C139.1 86.4 139 86.2 138.6 86.2C138.4 86.2 137.3 86.2 137 86.2C136.9 86.2 136.9 86.2 136.9 86.3V87.2C136.9 87.6 136.9 88.6 136.9 88.9C136.9 89.7 137.1 89.8 138.2 89.8C138.5 89.8 138.9 89.8 139.2 89.7C139.5 89.6 139.6 89.3 139.7 88.9C139.7 88.8 139.7 88.7 139.8 88.7C139.9 88.7 139.9 88.8 139.9 88.9C139.9 89.2 139.8 89.9 139.8 90.1C139.7 90.4 139.6 90.4 139.2 90.4C137.5 90.4 136.8 90.3 136.2 90.3C135.9 90.3 135.3 90.3 134.8 90.3C134.7 90.3 134.6 90.3 134.6 90.2C134.6 90.1 134.6 90.1 134.8 90.1C135 90.1 135.1 90.1 135.2 90.1C135.4 90.1 135.5 89.8 135.5 89.5C135.6 89 135.6 88.2 135.6 87.2V85.2H135.5Z" fill="#015FFF"/>
<path d="M48.8 44.3C49.2 44.3 49.6 44 49.6 43.5C49.6 43.1 49.3 42.7 48.8 42.7C48.4 42.7 48 43 48 43.5C48 44 48.3 44.3 48.8 44.3Z" fill="#015FFF"/>
<path d="M24.6 74.4C24.7105 74.4 24.8 74.3105 24.8 74.2C24.8 74.0895 24.7105 74 24.6 74C24.4895 74 24.4 74.0895 24.4 74.2C24.4 74.3105 24.4895 74.4 24.6 74.4Z" fill="#015FFF"/>
<path d="M34.1 74.4C34.2 74.4 34.3 74.3 34.3 74.2C34.3 74.1 34.2 74 34.1 74C34 74 33.9 74.1 33.9 74.2C33.9 74.3 34 74.4 34.1 74.4Z" fill="#015FFF"/>
<path d="M11.4 67.2L13.2 68.3C13.2 68.5 13.1 68.8 13.1 69C13.1 71.4 14.5 73.3 17.3 73.9C17.5 73.9 17.7 74 17.8 74L17.3 78.5C17.3 79.4 18.2 80.2 19.2 80.2C20.3 80.2 21.1 79.4 21.1 78.5L20.6 73.8H20.5V73.5C20.5 73.1 20.3 72.6 19.9 72.2C20.3 72.2 20.7 72.1 21.1 71.9C21.9 71.4 22.2 70.5 22.2 70.4L22.3 69.9L23.6 69.2V69.5C23.6 70.2 23.9 70.9 24.4 71.4V72.5V72.7C23.7 72.9 23 73.3 22.8 73.6L22.4 73.9L22.5 74.5C22.5 74.5 22.5 74.7 22.6 74.7C22.8 75.3 23.7 75.8 24.6 75.8C25 75.8 25.2 75.7 25.5 75.7C25.6 75.9 25.8 76.2 26 76.5C26.2 76.9 26.4 77.1 26.7 77.4C26.3 77.9 26.1 78.4 26.1 79C26.1 79.8 26.5 80.4 27 80.8C26.8 81.1 26.6 81.5 26.6 82C26.6 82.7 26.9 83.3 27.5 83.8C27.4 84 27.4 84.2 27.4 84.4C27.4 85 27.7 85.6 28.2 85.9C28.2 86.5 28.7 87 29.3 87C29.9 87 30.4 86.5 30.4 85.9C30.9 85.6 31.2 85 31.2 84.4C31.2 84.2 31.1 84 31.1 83.8C31.7 83.3 32 82.7 32 82C32 81.5 31.8 81.1 31.6 80.8C32.1 80.4 32.5 79.8 32.5 79C32.5 78.4 32.3 77.8 31.9 77.4C32.2 77.2 32.4 76.9 32.6 76.5C32.8 76.2 33 75.9 33.1 75.7C33.3 75.7 33.6 75.8 33.9 75.8C34.8 75.8 35.7 75.3 35.9 74.7V74.5L36 73.9L35.6 73.6C35.4 73.4 34.9 73 34.3 72.8V71.6C35 71.1 35.3 70.3 35.3 69.5V68.7H34.5H32.5C31.7 67.8 30.5 67.3 29.2 67.3C27.9 67.3 26.8 67.8 25.9 68.7H24.2L26.7 67.3C26.8 67.2 26.8 67.1 26.8 67C26.7 66.9 26.6 66.9 26.5 66.9L21.9 69.6L21.5 69.5C21.7 69.1 21.8 68.6 21.8 68.6V68.1L25.2 65.3C25.3 65.2 25.3 65.1 25.2 65C25.1 64.9 25 64.9 24.9 65L21.5 67.8H21.3C21.3 67.7 21.4 67.6 21.4 67.5L22.5 66.2L22.1 65.8C22 65.7 21.9 65.7 21.9 65.6L23.4 63.8C23.5 63.7 23.5 63.6 23.4 63.5C23.3 63.4 23.2 63.4 23.1 63.5L21.6 65.3C20.6 64.6 19.4 64.2 18.1 64.2C17.2 64.2 16.4 64.4 15.7 64.7L14.7 63.5C14.6 63.4 14.5 63.4 14.4 63.5C14.3 63.6 14.3 63.7 14.4 63.8L15.4 65C14.9 65.3 14.5 65.6 14.2 66L13 65C12.9 64.9 12.8 64.9 12.7 65C12.6 65.1 12.6 65.2 12.7 65.3L13.9 66.3C13.5 66.8 13.2 67.4 13.1 68L11.4 67C11.3 66.9 11.2 67 11.1 67.1C11.2 67 11.2 67.1 11.4 67.2ZM26.8 76C26.5 75.5 26.2 75 26 74.8C25.7 74.5 25.3 74.8 24.7 74.8C24 74.8 23.5 74.4 23.5 74.3V74.1C23.7 73.9 24.3 73.4 25 73.4C25.8 73.4 26.8 73.8 27.7 75.6C27.9 75.9 28.2 76.1 28.5 76.3C28.2 76.4 27.9 76.6 27.6 76.8C27.3 76.6 27 76.4 26.8 76ZM27.3 73.7H27.8C27.8 73.9 27.9 74.6 27.9 74.6C27.9 74.6 27.5 73.8 27.3 73.7ZM30.2 83.4C29.9 83.5 29.7 83.6 29.5 83.8C29.4 83.9 29.3 84.2 29.5 84.3C29.6 84.4 29.9 84.5 30 84.3C30.1 84.2 30.3 84.1 30.5 84C30.5 84.1 30.6 84.2 30.6 84.3C30.6 84.7 30.3 85.1 29.8 85.2V85.7C29.8 85.9 29.7 86 29.5 86C29.3 86 29.2 85.9 29.2 85.7V85.2C28.7 85.1 28.4 84.7 28.4 84.3C28.4 84.1 28.5 83.9 28.6 83.7C29 83.1 29.4 82.9 30.1 82.4C30.1 82.4 30.2 82.4 30.2 82.3C30.3 82.2 30.4 82.1 30.4 81.9C30.4 81.7 30.3 81.6 30.1 81.5C30.2 81.5 30.2 81.4 30.3 81.4C30.5 81.3 30.7 81.2 30.9 81.1C31.1 81.3 31.2 81.6 31.2 81.9C31.2 82.7 30.7 83.1 30.2 83.4ZM30.3 80.6C30.2 80.7 30.1 80.7 30 80.8C29.6 81 29.2 81.2 28.9 81.4C28.9 81.4 28.8 81.4 28.8 81.5C28.6 81.6 28.5 81.8 28.5 82C28.5 82.3 28.6 82.4 28.9 82.6C28.7 82.8 28.4 83 28.2 83.2C27.9 83 27.6 82.7 27.6 82.1C27.6 81.6 27.9 81.2 28.2 80.9C28.6 80.6 29.1 80.4 29.5 80.1C29.7 80 29.8 79.9 29.9 79.9C30.4 79.6 30.8 79.4 30.8 79C30.8 78.7 30.6 78.4 30.2 78.2C30.5 78.1 30.8 77.9 31.1 77.8C31.4 78.1 31.7 78.5 31.7 79C31.7 79.7 31 80.2 30.3 80.6ZM29 78.9C29 78.7 29.2 78.5 29.4 78.5C29.6 78.5 29.8 78.7 29.8 78.9C29.8 79.1 29.6 79.3 29.4 79.3C29.2 79.2 29 79.1 29 78.9ZM35.3 74.2V74.4C35.3 74.5 34.8 74.9 34.1 74.9C33.4 74.9 33.1 74.6 32.8 74.9C32.6 75.1 32.3 75.6 32 76.1C31.8 76.5 31.5 76.8 31.1 77C30.7 77.2 30.3 77.4 29.8 77.6C29.5 77.7 29.2 77.8 28.9 78C28.4 78.2 28 78.5 28 79C28 79.3 28.3 79.6 28.7 79.8C28.4 80 28.1 80.1 27.9 80.3C27.4 80 27.1 79.6 27.1 79C27.1 78.3 27.5 77.8 28 77.5C28.4 77.3 28.9 77.1 29.4 76.9C29.9 76.7 30.3 76.5 30.6 76.3C30.9 76.1 31.1 76 31.2 75.7C32.1 73.9 33.1 73.5 33.9 73.5C34.4 73.5 35.1 74 35.3 74.2ZM28.6 73.7H30V75.7C29.8 75.8 29.4 76 29 76.1C28.9 76.1 28.8 76.2 28.7 76.2L28.6 73.7ZM30.8 74.6C30.8 74.6 30.9 73.9 30.9 73.7H31.4C31.3 73.8 30.8 74.6 30.8 74.6ZM24.4 69.3H27.1C27.4 69.3 27.6 69.5 27.6 69.8C27.6 69.8 27.6 70.3 27.6 70.4C27.7 70.4 28.1 70.4 28.2 70.4C28.2 70.2 28.2 69.8 28.2 69.8C28.2 69.4 27.9 69 27.5 68.8L27.3 68.7L27.5 68.6C28.1 68.2 28.9 67.9 29.6 67.9C30.4 67.9 31.1 68.2 31.8 68.6L31.9 68.7L31.7 68.8C31.3 69 31.1 69.4 31.1 69.7C31.1 69.7 31.1 70.2 31.1 70.3C31.2 70.3 31.6 70.3 31.7 70.3C31.7 70.1 31.7 69.7 31.7 69.7C31.7 69.4 31.9 69.2 32.2 69.2H34.9V69.3C34.9 69.5 34.9 69.7 34.8 70H33V70.3H34.7C34.5 70.8 34 71.2 33.3 71.2C33.3 71.2 32.8 71.2 32.6 71.2C32.6 71.3 32.6 71.7 32.6 71.8C32.8 71.8 33.3 71.8 33.3 71.8H33.6H33.9V72.8H25.4V71.8H25.9H26.2C26.2 71.8 26.7 71.8 26.9 71.8C26.9 71.7 26.9 71.3 26.9 71.2C26.7 71.2 26.2 71.2 26.2 71.2C25.5 71.2 25 70.8 24.8 70.3H26.5V70H24.7C24.6 69.8 24.6 69.5 24.6 69.3H24.4ZM20.3 78.5C20.3 79 19.8 79.4 19.2 79.4C18.6 79.4 18.1 79 18.1 78.5L18.5 74.6H19.8L20.3 78.5ZM20.8 71.2C20.2 71.6 19.3 71.4 19.3 71.4C19.3 71.4 19.5 70.6 20.2 70.2C20.8 69.8 21.7 70 21.7 70C21.7 70 21.4 70.9 20.8 71.2ZM20 68.6C20.6 68.1 21.4 68.2 21.4 68.2C21.4 68.2 21.3 69 20.8 69.5C20.2 70 19.4 70 19.4 70C19.4 70 19.4 69.1 20 68.6ZM19.8 67.1C20.2 66.6 21 66.5 21 66.5C21 66.5 21.1 67.3 20.6 67.8C20.1 68.3 19.4 68.4 19.4 68.4C19.4 68.4 19.4 67.6 19.8 67.1ZM18.4 64.9C19.8 64.9 21 65.4 21.9 66.2L21.7 66.4C21 66 20.3 65.8 19.4 65.8C17.2 65.8 15.7 67.3 15.7 69.1C15.7 70.6 16.6 71.9 18.3 72.3C19.4 72.5 19.5 73.1 19.5 73.4C19.5 73.5 19.5 73.6 19.5 73.7H18.6C18.6 73.4 18.2 73.1 17.3 72.9C15 72.4 13.8 71 13.8 68.9C14 66.7 15.8 64.9 18.4 64.9ZM18.4 68.6C19 69.1 19 70 19 70C19 70 18.2 70.1 17.6 69.6C17 69.1 17 68.3 17 68.3C17 68.3 17.8 68.2 18.4 68.6ZM17.4 66.5C17.4 66.5 18.2 66.6 18.6 67.1C19 67.6 19 68.4 19 68.4C19 68.4 18.2 68.3 17.8 67.8C17.3 67.3 17.4 66.5 17.4 66.5ZM18.2 70.2C18.8 70.6 19.1 71.4 19.1 71.4C19.1 71.4 18.3 71.6 17.6 71.2C17 70.8 16.7 70 16.7 70C16.7 70 17.6 69.8 18.2 70.2Z" fill="#015FFF"/>
<path d="M58.5 72.3L57 68.9C57.8 68.8 58.4 68.1 58.4 67.3C58.4 66.4 57.7 65.7 56.8 65.7C56.2 65.7 55.6 66.1 55.4 66.6C53.4 66.7 51.7 66.4 50.5 65.8C50.5 65.6 50.6 65.5 50.6 65.3C50.6 64.2 49.7 63.3 48.6 63.3C47.5 63.3 46.6 64.2 46.6 65.3C46.6 65.5 46.6 65.6 46.7 65.8C45.5 66.4 43.9 66.7 41.9 66.6C41.6 66.1 41.1 65.7 40.5 65.7C39.6 65.7 38.9 66.4 38.9 67.3C38.9 68.1 39.5 68.8 40.3 68.9L38.8 72.3H38V73.1C38 74.7 39.3 75.9 40.8 75.9C41.4 75.9 41.9 75.7 42.3 75.4L40.7 77.9L40.5 79.1L45.8 80.2C45.7 80.5 46.2 80.8 46.6 80.9C46.8 81 47.2 81 47.4 80.8L47.5 82.9V82.8C47.5 83.4 48 83.9 48.6 83.9C49.2 83.9 49.7 83.4 49.7 82.8L49.8 81.4L52.8 82.4L55.4 76V75.6C55.7 75.7 56.1 75.8 56.4 75.8C58 75.8 59.2 74.5 59.2 73V72.2H58.5V72.3ZM57.8 72.3H55L56.4 69.2L57.8 72.3ZM54.1 74.7C53.9 74.7 53.6 74.6 53.4 74.6C52.9 74.5 52.5 74.2 52.1 74C51.7 73.7 51.3 73.5 50.8 73.3C50.7 73.3 50.5 73.3 50.4 73.2L50.7 68.8H55.8L54.3 72.2H53.6V73C53.6 73.7 53.8 74.3 54.1 74.7ZM40.8 69.2L42.2 72.3H39.4L40.8 69.2ZM42.9 72.3L41.4 68.9H46.5L46.8 72.9C46.5 72.9 46.2 72.9 45.9 72.8C45.2 72.6 44.8 72.4 44.8 72.4L44.5 72.2L44.3 72.5L43.6 73.6C43.6 73.4 43.6 73.3 43.6 73.1V72.3H42.9ZM40.8 75.1C39.7 75.1 38.8 74.2 38.8 73.1H42.8C42.8 74.2 41.9 75.1 40.8 75.1ZM46.8 79.8C46.6 79.3 46.3 78.9 45.8 78.7C45.4 78.6 44.8 78.6 44.3 78.7C43.7 78.8 43 78.8 42.4 78.6C42 78.5 41.7 78.3 41.5 78.2C41.8 77.7 44.4 73.6 44.7 73.1C44.9 73.2 45.3 73.4 45.7 73.5C46.1 73.6 46.5 73.6 46.8 73.6L47.2 79.5C47.1 79.6 46.8 79.8 46.8 79.8ZM48.9 82.9C48.9 83.1 48.8 83.2 48.6 83.2C48.4 83.2 48.3 83.1 48.3 82.9L47.2 68.1H40.4C40 68.1 39.6 67.7 39.6 67.3C39.6 66.9 40 66.5 40.4 66.5C40.8 66.5 41.2 66.9 41.2 67.3C41.2 67.3 41.2 67.3 41.2 67.4C42.7 67.5 45.7 67.6 47.7 66.1C47.5 65.9 47.4 65.6 47.4 65.3C47.4 64.7 47.9 64.1 48.6 64.1C49.2 64.1 49.8 64.6 49.8 65.3C49.8 65.6 49.7 65.9 49.5 66.1C51.6 67.6 54.5 67.5 56 67.4C56 67.4 56 67.4 56 67.3C56 66.9 56.4 66.5 56.8 66.5C57.2 66.5 57.6 66.9 57.6 67.3C57.6 67.7 57.2 68.1 56.8 68.1H50L48.9 82.9ZM52.1 81.1C52.1 81.1 51.7 81.1 51.3 81C51 80.9 50.4 80.4 49.8 80.1L50.3 73.9C50.4 73.9 50.5 73.9 50.6 73.9C51 74 51.3 74.2 51.7 74.4C52.1 74.7 52.5 75 53.2 75.1C53.6 75.2 54.2 75.3 54.5 75.3C54.2 76.4 52.1 81.1 52.1 81.1ZM56.4 75.1C55.3 75.1 54.4 74.2 54.4 73.1H58.4C58.4 74.2 57.5 75.1 56.4 75.1Z" fill="#015FFF"/>
<path d="M14.8 51.2C14.8 54.3 17.2 55.7 19.2 56.4C19.2 56.7 19.5 57 19.7 57.1C19.6 57.2 19.5 57.3 19.4 57.4C19.3 57.7 19.2 58 19.3 58.2C19.4 58.4 19.5 58.7 19.7 58.8C19.2 59.1 18.4 59.7 18.4 60.5V61.1H24.7V60.5C24.7 59.5 23.7 59 23.2 58.6C23.1 58.5 23 58.4 22.9 58.4C22.9 58.4 22.9 58.4 22.9 58.3C22.9 58.3 24 58 24 57.2C24 56.8 23.7 56.4 23.5 56.3C23.6 56.2 23.7 56.1 23.8 56C23.9 55.7 24 55.4 23.9 55.2C23.9 55 23.8 54.9 23.7 54.8C23.9 54.7 24.1 54.6 24.2 54.5C25.1 53.9 26.3 53 26.3 51.3V49.5H24.3L24.4 48.9C24.6 48.8 24.9 48.7 25.1 48.7C25.4 48.7 25.7 48.9 25.9 48.9C26.2 48.9 26.3 48.7 26.3 48.7C26.3 48.6 26.1 48.6 26 48.6C25.8 48.6 25.5 48.3 25.1 48.3C24.9 48.3 24.7 48.4 24.5 48.4C24.4 48.3 23.8 47.7 23.5 47.5H27.3V61.3H31.4C31.4 61.3 31.4 48.9 31.4 47.5C32.5 47.5 35.7 47.5 35.7 47.5V43.4C35.7 43.4 32.6 43.4 31.4 43.4C31.4 42.2 31.4 38.5 31.4 38.5H27.3V43.4H23V47.3C22.6 47.2 22.2 47 22 47C21.4 47 20.7 47.1 20.7 47.1C20.7 47.1 19.7 46.9 18.8 46.9C16.9 46.9 14.8 48.6 14.8 51.2ZM23.9 44.2H28.2V39.3H30.6V44.2H34.9V46.6H30.6V60.6H28.2V46.6H23.9V44.2ZM23.9 60.5V60.6H19.3V60.5C19.3 60 20.4 59.5 20.9 59L22.1 58.7C22.2 59.2 23.9 59.9 23.9 60.5ZM20.2 55.8L22.8 55.1C23 55 23.3 55.2 23.3 55.4C23.4 55.6 23.2 55.9 23 55.9L20.4 56.6C20.2 56.7 19.9 56.5 19.9 56.3C19.8 56.1 19.9 55.8 20.2 55.8ZM23.1 57.7L20.5 58.4C20.3 58.5 20 58.3 20 58.1C19.9 57.9 20.1 57.6 20.3 57.6L22.9 56.9C23.1 56.8 23.4 57 23.4 57.2C23.5 57.4 23.3 57.6 23.1 57.7ZM25.5 50.3V51.2C25.5 52.4 24.6 53.1 23.8 53.7C23.5 53.9 22.8 54.4 22.8 54.4L21 54.9C20.7 54.5 20 54.1 19.5 53.7C18.7 53.1 17.7 52.4 17.7 51.2V50.3H25.5ZM18.8 47.8C19.5 47.8 20 47.8 20.6 48C20.6 48 21.3 47.9 22 47.9C22.8 47.9 23.6 48.7 23.6 48.7L23.5 49.1C23.5 49.1 23.1 49.6 22 49.6C21.4 49.6 20.8 49.2 20.4 49C19.9 48.8 19.3 48.8 18.8 48.8C17.9 48.8 16.6 49.6 16.6 51.2C16.6 52.6 17.4 53.3 18.2 53.9C19.1 54.6 19.8 54.9 20 55.1H19.9C19.7 55.2 19.5 55.3 19.3 55.5C17.6 54.9 15.6 53.7 15.6 51.2C15.7 49 17.4 47.8 18.8 47.8Z" fill="#015FFF"/>
<path d="M59.4 51.7C59.4 49.6 57.9 48.2 55.7 48.2H52.9L51.5 44.7C51.6 44.3 51.7 44 51.7 43.5C51.7 41.8 50.3 40.5 48.7 40.5C47 40.5 45.7 41.9 45.7 43.5C45.7 43.9 45.8 44.3 45.9 44.7L44.5 48.2H41.7C39.5 48.2 38 49.6 38 51.7C38 53.4 39.4 54.7 41 54.7C41.3 54.7 41.7 54.6 42 54.5L40.8 57.7L39.7 60.4C39.4 61.1 39.9 61.3 39.9 61.3L40.5 61.6C40.9 61.8 41.2 61.5 41.4 61.2L42.1 60V60.3H43H54.3H55.2V60L55.9 61.3C56.1 61.6 56.4 61.9 56.8 61.7L57.4 61.4C57.4 61.4 57.9 61.2 57.6 60.5L56.5 57.8L55.3 54.6C55.6 54.7 55.9 54.8 56.2 54.8C58 54.7 59.4 53.3 59.4 51.7ZM48.8 41.4C50 41.4 51 42.4 51 43.6C51 44.8 50 45.8 48.8 45.8C47.6 45.8 46.7 44.8 46.7 43.6C46.6 42.4 47.6 41.4 48.8 41.4ZM41.2 53.8C40 53.8 39.1 52.9 39.1 51.7C39.1 50.1 40.2 49.1 41.9 49.1H44.3L43.4 51.3C43.1 50.5 42.4 50.1 41.5 50.1C40.6 50.1 39.9 50.8 39.9 51.6C39.9 52.4 40.5 53 41.3 53C41.5 53 41.7 52.8 41.7 52.6C41.7 52.4 41.5 52.2 41.3 52.2C41.1 52.2 40.8 52.1 40.8 51.7C40.8 51.3 41.2 51 41.5 51C42.2 51 42.7 51.5 42.7 52.4C42.7 53.2 42.1 53.8 41.2 53.8ZM40.8 60.8L40.6 60.7C40.6 60.7 44.7 50.3 46.5 45.6C46.8 45.9 47.1 46.2 47.5 46.3L48.3 47.7L40.8 60.8ZM48.4 49.1H49L50.5 51.7H46.8L48.4 49.1ZM44.6 59.5H43.1V58.4L44.6 55.8V59.5ZM52 59.5H50.5V53.9C50.5 53.6 50.3 53.4 50 53.4C49.7 53.4 49.5 53.6 49.5 53.9V59.5H48V53.9C48 53.6 47.8 53.4 47.5 53.4C47.2 53.4 47 53.6 47 53.9V59.5H45.5V54.1L46.4 52.6H51.1L52 54.1V59.5ZM54.4 59.5H52.9V55.8L54.4 58.4V59.5ZM56.9 60.7L56.7 60.8L48.6 46.6C48.7 46.6 48.7 46.6 48.8 46.6C49.7 46.6 50.5 46.2 51.1 45.6C52.8 50.2 56.9 60.7 56.9 60.7ZM54.8 52.3C54.8 51.5 55.2 50.9 56 50.9C56.4 50.9 56.7 51.1 56.7 51.6C56.7 52 56.4 52.1 56.2 52.1C56 52.1 55.8 52.3 55.8 52.5C55.8 52.7 56 52.9 56.2 52.9C57 52.9 57.6 52.3 57.6 51.5C57.6 50.6 56.9 50 56 50C55.1 50 54.4 50.5 54.1 51.2L53.2 49H55.6C57.3 49 58.4 50 58.4 51.6C58.4 52.8 57.4 53.7 56.3 53.7C55.5 53.8 54.8 53.2 54.8 52.3Z" fill="#015FFF"/>
<path d="M22.2 48.8C22.3 48.8 22.4 48.7 22.4 48.6C22.4 48.5 22.3 48.4 22.2 48.4C22.1 48.4 22 48.5 22 48.6C22 48.7 22.1 48.8 22.2 48.8Z" fill="#015FFF"/>
<path d="M47.9 22.7C47.9 23 48.2 23.5 48.3 23.6C48.6 23.8 49.1 24 49.2 24C49.2 23.9 49.2 23.7 49.2 23.6C49.2 22 50.7 21 50.7 21C50.7 21 50.8 20.8 50.8 20.7L50.6 19.6C50.6 19.5 50.6 19.4 50.4 19.4L49.5 19.6C48.6 20.7 47.8 21.2 47.7 21.3C48 21.8 47.9 22.3 47.9 22.7ZM48.5 21.5C49.2 21 49.6 20.5 49.9 20.2H50H50.2V20.3C50.2 20.4 50.2 20.6 50.3 20.7C49.7 21.2 49 21.8 48.8 22.9V23.1L48.7 22.9V22.8C48.7 22.7 48.7 22.4 48.7 22.4V22.3C48.5 22 48.5 21.8 48.5 21.5Z" fill="#015FFF"/>
<path d="M51.3 18.8C51.4 19.1 51.4 20.4 51.4 20.4C51.5 20.3 51.9 19.9 51.9 19.5C51.9 18.8 51.7 18 51.7 18C51.7 17.9 51.1 17.2 50.8 17.2C50.7 17.2 50.5 17.4 50.4 17.7C50.3 18 50 18.4 49.9 18.5V18.6C50.3 18.6 51.2 18.6 51.3 18.8Z" fill="#015FFF"/>
<path d="M16.7 26L17.4 26.9C17.8 26.6 18.2 26.3 18.6 26.1C18.6 26 18.6 26 18.6 25.9C18.6 25.8 18.6 25.6 18.7 25.5C18.8 25.2 19 25 19.3 24.8C19.5 24.7 19.6 24.7 19.8 24.7C20.1 24.7 20.5 24.9 20.7 25.1C21.1 25 21.6 24.8 22 24.8L21.8 23.7C20.9 23.9 20 24.2 19.1 24.6C18.2 24.9 17.3 25.4 16.7 26Z" fill="#015FFF"/>
<path d="M15 23.8L15.7 24.7C16.2 24.3 16.8 23.9 17.5 23.5V23.4C17.5 22.9 17.8 22.5 18.2 22.3C18.4 22.2 18.5 22.2 18.7 22.2C19 22.2 19.4 22.3 19.6 22.6C20.2 22.4 20.9 22.2 21.5 22.1C21.5 22 21.3 21 21.3 21C20.2 21.2 19.1 21.6 18 22C16.8 22.5 15.8 23.1 15 23.8Z" fill="#015FFF"/>
<path d="M16.3 21V20.9C16.3 20.4 16.6 20 17 19.8C17.2 19.7 17.3 19.7 17.5 19.7C17.8 19.7 18.1 19.8 18.4 20.1C19.2 19.8 20 19.5 20.9 19.4C20.8 18.9 20.7 18.7 20.7 18.5C20.7 18.5 20.6 18.5 20.5 18.5C20.2 18.5 19.8 18.6 19.4 18.7H19.2C18.9 18.8 18.5 18.9 18 18.9C17.4 18.9 16.9 18.7 16.6 18.3C16.4 18.1 16.4 18.1 16.4 18.1H16.3C16.2 18.2 16.2 18.2 16.2 18.3C16.2 18.4 16.2 18.4 16.2 18.5C16.2 18.6 16.2 18.7 16.2 18.8C16.2 19.8 15.3 20.5 14.8 20.8L14.7 20.9C14 21.4 13.8 21.7 13.7 21.8C13.8 21.9 13.9 22.2 14.2 22.5C14.7 21.9 15.4 21.4 16.3 21Z" fill="#015FFF"/>
<path d="M41.2 21.7C41.7 21.8 42.6 22.1 42.6 22.1C42.9 20.9 43.7 20.2 44 20C43.7 19.7 43.1 19 42.6 18.2C42 18.5 41.4 18.7 41.1 18.8C41.2 19.1 41.3 19.8 41.3 20.8C41.3 21.1 41.3 21.5 41.2 21.7ZM42.4 18.8C42.7 19.2 43 19.6 43.3 19.9C43.3 19.9 42.7 20.3 42.3 21.4C42.1 21.3 42 21.3 41.8 21.3C41.8 21.1 41.8 20.9 41.8 20.7C41.8 20.2 41.7 19.6 41.7 19.1C41.9 19 42.2 18.9 42.4 18.8Z" fill="#015FFF"/>
<path d="M29.4 20C29.7 20.2 30.5 20.9 30.8 22.1C31.1 22 31.7 21.9 32.2 21.7C32.2 21.5 32.1 21.2 32.1 20.7C32.1 19.7 32.2 19 32.3 18.7C32 18.6 31.4 18.4 30.8 18.1C30.3 18.9 29.7 19.7 29.4 20ZM31.7 19.1C31.6 19.6 31.6 20.2 31.6 20.7C31.6 20.9 31.6 21.1 31.6 21.3C31.4 21.4 31.3 21.4 31.1 21.4C30.7 20.3 30.1 19.9 30.1 19.9C30.4 19.6 30.7 19.2 31 18.8C31.2 18.9 31.5 19 31.7 19.1Z" fill="#015FFF"/>
<path d="M30.2 25.6C32.1 25.3 33.4 24.7 33.9 24.4C33.6 24.1 33 23.5 32.6 22.6C32.4 22.7 31.9 22.8 31 23C31 24.3 30.5 25.1 30.2 25.6ZM31.4 23.4C31.7 23.3 32 23.2 32.2 23.2C32.4 23.6 32.6 23.9 32.9 24.2C32.4 24.4 31.9 24.6 31 24.8C31.3 24.4 31.4 23.9 31.4 23.4Z" fill="#015FFF"/>
<path d="M35.5 24.5C35.7 24.7 36.2 25 36.7 25.2C37.2 25 37.7 24.6 37.9 24.5C37.6 24.3 37.1 23.8 36.7 23.1C36.3 23.8 35.8 24.3 35.5 24.5ZM36.7 24C36.8 24.1 36.9 24.3 37.1 24.4C37 24.5 36.8 24.6 36.7 24.6C36.6 24.5 36.5 24.5 36.3 24.4C36.5 24.3 36.6 24.2 36.7 24Z" fill="#015FFF"/>
<path d="M30.5 16.9C30.7 16.6 31.2 15.6 31.2 14.8C31.2 14.4 30.9 13.8 30.4 13.8C29.9 13.8 29.4 14.5 29.4 15.3C29.4 16.2 30.1 16.7 30.5 16.9ZM30.4 14.3C30.6 14.3 30.7 14.7 30.7 14.8C30.7 15 30.6 15.5 30.3 16.1C30 15.8 29.9 15.5 29.9 15.3C29.9 14.8 30.2 14.3 30.4 14.3Z" fill="#015FFF"/>
<path d="M43.3 25.6C43 25.2 42.5 24.3 42.5 23.1C41.6 22.9 41.2 22.7 40.9 22.7C40.5 23.6 39.9 24.2 39.6 24.5C40 24.7 41.4 25.2 43.3 25.6ZM41.1 23.2C41.4 23.3 41.7 23.4 41.9 23.4C41.9 23.9 42 24.4 42.2 24.8C41.4 24.6 40.8 24.4 40.3 24.2C40.7 23.9 40.9 23.6 41.1 23.2Z" fill="#015FFF"/>
<path d="M34.1 21.1C34.2 21.1 34.2 21.1 34.3 21C34.3 21 34.3 21 34.3 20.9C34.3 20.7 34.5 20.5 34.7 20.4H34.8C35 20.4 35.2 20.5 35.3 20.8C35.4 21.3 35.1 21.7 34.5 22L33.5 22.3C33.8 22.8 34.2 23.4 34.7 23.8C35.6 23.1 36.1 22.3 36.1 21.4C36.1 20.1 34.7 19.5 33.2 19C33.1 19.5 33 20.1 33 20.6C33 20.8 33 21.1 33.1 21.3L34.1 21.1ZM35.7 21.4C35.7 21.4 35.8 22.2 34.8 23.2C34.6 23 34.5 22.8 34.3 22.6C35.6 22.3 35.7 21.4 35.7 21.4ZM33.7 19.8C34.3 20 34.9 20.2 34.9 20.2C34.9 20.2 34.3 20.1 33.9 20.7C33.8 20.7 33.8 20.7 33.7 20.8C33.7 20.8 33.7 20.8 33.7 20.7C33.6 20.4 33.6 20.1 33.7 19.8Z" fill="#015FFF"/>
<path d="M44 15.3C44 14.5 43.5 13.8 43 13.8C42.5 13.8 42.2 14.4 42.2 14.8C42.2 15.6 42.7 16.5 42.9 16.9C43.3 16.7 44 16.2 44 15.3ZM43 14.3C43.2 14.3 43.5 14.8 43.5 15.3C43.5 15.5 43.4 15.8 43.1 16.1C42.8 15.5 42.7 15.1 42.7 14.8C42.8 14.7 42.9 14.3 43 14.3Z" fill="#015FFF"/>
<path d="M38.7 23.9C39.2 23.4 39.7 22.9 39.9 22.4L38.9 22.1C38.3 21.9 38 21.4 38.1 20.9C38.2 20.7 38.4 20.5 38.6 20.5H38.7C38.9 20.6 39.1 20.7 39.1 21C39.1 21 39.1 21 39.1 21.1C39.1 21.1 39.2 21.1 39.2 21.2L40.2 21.5C40.3 21.3 40.3 21 40.3 20.8C40.3 20.2 40.2 19.7 40.1 19.2C38.6 19.7 37.2 20.3 37.2 21.6C37.3 22.4 37.8 23.2 38.7 23.9ZM39.8 19.8C39.8 20.1 39.9 20.4 39.9 20.7C39.9 20.7 39.9 20.7 39.9 20.8C39.8 20.8 39.7 20.7 39.7 20.7C39.3 20.1 38.7 20.2 38.7 20.2C38.7 20.2 39.2 19.9 39.8 19.8ZM37.7 21.4C37.7 21.4 37.8 22.3 39.1 22.6C39 22.8 38.8 23 38.6 23.2C37.6 22.3 37.7 21.4 37.7 21.4Z" fill="#015FFF"/>
<path d="M55.6 25.1L55.8 23.6L57.3 23.3L55.9 22.6L56.1 21.1L55 22.2L53.6 21.5L54.3 22.9L53.2 24L54.8 23.7L55.6 25.1Z" fill="#015FFF"/>
<path d="M50.6 22.7C50.5 22.9 50.4 23.2 50.4 23.5C50.4 24.1 50.7 24.7 51.2 25.1L51.9 25.6C52.4 25.9 52.8 26.2 53.1 26.6L53.2 26.7H53.5C53.9 26.7 54.5 26.9 54.9 27L55.7 27.2C55.9 27.2 56 27.3 56.2 27.3C56.7 27.3 57.2 27.1 57.5 26.8C57.7 26.6 57.9 26.4 58 26.2C58.2 25.9 58.2 25.5 58.2 25.1V24.5C58.2 24.2 58.2 23.9 58.3 23.5C58.3 23.4 58.3 23.4 58.3 23.3L58.4 23.1C58.6 22.6 59.1 22.3 59.5 22.1L59.7 21.9L59.6 21.1H59.4C59 21 58.6 20.9 58.5 20.8C58.3 20.7 57.3 20.1 57.3 19.4C57.3 19.4 57.3 19.3 57.3 19.2C57.3 19.1 57.3 19 57.3 18.9C57.3 18.5 57.1 18.4 56.9 18.4C56.8 18.4 56.7 18.3 56.6 18.3C56.4 18.3 56.2 18.5 56.1 18.6C55.9 18.8 55.6 19 55.2 19C54.9 19 54.5 18.9 54.3 18.8C54.2 18.8 53.8 18.6 53.4 18.3L53.2 18.1L53 18.2C53 18.2 52.8 18.3 52.7 18.4L52.5 18.5V18.7C52.5 18.9 52.6 19.2 52.6 19.5C52.6 19.8 52.6 20 52.5 20.2L52.4 20.4C52.4 20.5 52.3 20.5 52.3 20.6C52 21 51.7 21.3 51.3 21.5C51.2 22 50.8 22.2 50.6 22.7ZM53.1 20.9C53.6 20.1 53.4 19 53.4 19C53.8 19.3 54.2 19.4 54.3 19.5C54.6 19.6 55 19.7 55.4 19.7C56 19.7 56.4 19.5 56.7 19.1C56.8 19 56.8 19 56.8 19C56.8 19.1 56.8 19.1 56.8 19.2C56.8 19.3 56.8 19.4 56.8 19.4C56.8 20.5 57.9 21.2 58.3 21.4C58.4 21.5 58.7 21.6 59.1 21.7C59.1 21.7 58.4 22 57.9 23C57.3 24.1 57.8 25.4 57.5 26C57.1 26.7 56.6 26.8 56.2 26.8C56.1 26.8 55.9 26.8 55.8 26.8L55 26.6C54.5 26.5 54 26.3 53.4 26.3C53.1 25.9 52.7 25.6 52.2 25.3L51.5 24.8C51.1 24.5 50.6 23.8 51 23.1C51.6 22.2 52.4 21.9 53.1 20.9Z" fill="#015FFF"/>
<path d="M27 24.3C27.4 24.3 27.4 23.8 27.5 23.7C27.7 23.5 28.1 23.6 28.1 23.1C28.1 22.7 27.6 22.7 27.5 22.5C27.3 22.3 27.4 21.9 27 21.9C26.7 21.9 26.6 22.1 26.6 22.4V23.7C26.6 24.1 26.7 24.3 27 24.3Z" fill="#015FFF"/>
<path d="M12.6 29C12.4 28.8 12.1 28.8 11.9 29C11.6 29.3 12 29.6 12.1 29.8C12.1 30 11.8 30.4 12.1 30.6C12.4 30.9 12.7 30.5 12.9 30.5C13.1 30.5 13.5 30.8 13.7 30.5C13.9 30.3 13.8 30 13.6 29.8L12.6 29Z" fill="#015FFF"/>
<path d="M66.9 41.6C67.9 41.4 68.8 40.4 68.8 39.2C68.8 38.5 68.5 37.4 67.1 36.5C66.9 36.4 66.7 36.3 66.5 36.2C67.5 35.8 68.1 35.1 68.1 34.1C68.1 33.4 67.6 32.9 66.9 32.9C66.6 32.9 66.3 33 66 33.3C65.8 33.5 65.7 33.8 65.7 34C65.6 34.1 65.2 34.2 64.2 34.2C63.8 34.2 63.4 34.1 63 34C63.2 33.9 63.9 33.3 64.2 33.1C64.5 32.9 65.2 32.7 65.5 32.1C66.3 30.7 66.6 30 66.9 28.7C67.1 28.1 67.1 27.5 67.1 26.9C67.1 26.4 67 26 67 25.7L66.9 25C66.9 24.6 66.8 23.4 65.8 23.1C65.8 23.1 64.1 20.5 64 20.4C63.9 20.3 63.9 20.3 63.8 20.4C63.7 20.5 63.1 21.3 63.1 21.3C62.9 21.3 62.6 21.3 62.4 21.5C62.4 21.4 62.3 21.4 62.2 21.3C62.1 21.3 62.1 21.2 62 21.2L61.7 19.2H61.5L60.4 19.4C60.4 19.4 60.1 19.3 59.8 19.2C59.7 19.2 59.6 19 59.5 18.9C59.5 18.8 59.5 18.7 59.5 18.6C59.5 17.6 59 16.9 58.2 16.5C57.6 16.2 56.6 16 55.5 17C55.4 17 55.3 17 55.1 16.9C54.8 16.8 54.7 16.6 54.6 16.6L53.9 15.4L52.3 16.4C51.3 15.6 50.9 15.3 50.3 15.6C50.1 15.7 49.9 15.8 49.7 16.1C49.8 16 49.8 15.8 49.8 15.7C49.8 15.1 49.3 14.5 48.7 14.5C48.6 14.5 48.5 14.4 48.5 14.4C48.4 14.1 48 13.1 47.9 13.1C47.9 13 47.7 13 47.6 13.1C47.5 13.2 45.7 14.6 45.7 14.6C45.5 13.4 44.6 12.6 43.6 12.4V10.6H42.7C42.7 8.1 41 6.3 38.7 6.3C38.6 6.3 38.5 6.3 38.3 6.3V4.6H40V1.8H38.2V0H35.3V1.8H33.5V4.6H35.3V6.3C35.1 6.3 34.9 6.2 34.7 6.2C32.3 6.2 30.7 8 30.7 10.5H29.6V12.3C28.5 12.6 27.7 13.6 27.6 14.9L26.8 14.2L25.2 12.9L25 12.8L21.7 16.7C21.3 16.4 20.8 16.3 20.2 16.3C19.1 16.3 18 16.7 17.8 16.7C16.7 15.6 15.6 15.9 15 16.1C14.4 16.4 13.6 17 13.6 18.2C13.6 18.3 13.6 18.4 13.6 18.5C13.5 18.6 13.4 18.7 13.2 18.8L13 18.9C11.8 19.8 11.2 20.6 11.1 21.4H6.1V26.2H9.7C9.5 26.4 8.1 27.5 8.1 29.7C8.1 32.3 10.2 33.6 10.5 33.7C10.1 34 9.7 34 9.3 34C8.3 34 7.9 33.9 7.8 33.8C7.7 33.2 7.2 32.7 6.6 32.7C5.9 32.7 5.4 33.3 5.4 33.9C5.4 35.4 6.6 35.9 7 36C6.8 36.1 4.7 37 4.7 39C4.7 40.3 5.6 41.2 6.6 41.4C2.4 47.6 0 54.9 0 62.7C0.1 83 16.7 99.3 36.9 99.2C57.1 99.1 73.5 82.5 73.4 62.3C73.4 54.6 71 47.5 66.9 41.6ZM64.6 30.2C64.5 31.2 64 32.1 63.2 32.8C62.5 33.3 61.8 33.7 61 33.7C61.8 34.2 62.9 34.7 64.2 34.7C66.2 34.7 66.4 34.3 66.4 33.9C66.4 33.8 66.5 33.6 66.5 33.6C66.6 33.5 66.7 33.5 66.8 33.5C67.1 33.5 67.3 33.7 67.3 34C67.3 35.7 65.1 35.7 64.1 35.7H63.7C63.9 35.8 64.3 36 64.3 36C65.7 36.6 65.7 36.6 65.7 36.6C66 36.7 66.3 36.8 66.6 37C67.5 37.6 68 38.3 68 39.1C68 40 67.4 40.9 66.4 40.9C65.5 40.9 64.9 40.2 64.9 39.3C64.9 39 65.1 38.8 65.4 38.8C65.7 38.8 65.9 39 65.9 39.3C65.9 39.8 66.2 39.9 66.4 39.9C66.7 39.9 67 39.6 67 39.1C67 38.6 66.7 38.2 66.1 37.9C65.8 37.7 65.7 37.7 65.3 37.5L64 36.9C64 36.9 62.5 36.1 62.3 36C61.3 35.4 60.4 34.7 59.5 33.9L59 33.6L59.1 33.5C59.1 33.5 59.7 33.7 59.9 33.5C60.1 33.3 60 32.7 60 32.7H60.2H60.3C60.4 32.7 60.4 32.7 60.5 32.7C61.4 32.7 62.2 32.2 62.5 32C63.1 31.5 63.5 30.8 63.6 30C63.6 29.9 63.6 29.8 63.6 29.7C63.6 28.9 63.3 28.3 63 28C62.9 27.9 62.8 27.7 62.8 27.5C62.8 27.4 62.8 27.3 62.9 27.2C63 27.1 63.1 27.1 63.2 27.1C63.4 27.1 63.5 27.2 63.7 27.4C64.2 28 64.5 28.8 64.5 29.7C64.6 29.9 64.6 30 64.6 30.2ZM64.6 38.7C64.1 38.1 63.9 37.9 63.4 37.3L65 38C65.3 38.1 65.4 38.2 65.4 38.2C64.9 38.3 64.7 38.6 64.6 38.7ZM46.1 15.1L46.6 15.2L46.5 14.8L46.9 15V14.5L47.2 14.8L47.3 14.3L47.6 15C47.8 15 48 15.1 48.2 15.3C48.3 15.3 48.7 15.3 48.8 15.6C48.9 16 48.1 16.1 48.1 16.2C48.1 16.3 48.3 16.4 48.5 16.5C48.8 16.7 49.4 17.3 49.5 17.5C49.6 17.4 49.8 17.1 49.9 17C50 16.9 50.4 16.4 50.5 16.4C50.8 16.3 51.1 16.7 51.3 16.9C51.7 17.1 51.9 17.5 52 17.6L53.4 16.7C53.4 16.7 53.9 17.9 55.3 17.9C55.5 17.9 55.7 17.9 55.8 17.8C56.3 17.2 56.9 17 57.6 17.3C58.3 17.6 58.5 18.2 58.4 19C58.3 19.4 59 19.9 59.2 20C59.6 20.2 60 20.3 60.3 20.3L60.7 20.2L61 22.4C59.3 23.3 59.2 23.3 59.2 25.1C59.2 25.7 59.2 26.3 58.9 26.9C58.7 27.2 58.5 27.5 58.2 27.8C58.2 27.8 58.1 27.8 58.1 27.9C58.1 28 58.1 28 58.1 28.1L58.6 28.9C58.7 28.8 59.5 28.2 59.6 28C59.7 27.9 59.6 26.9 59.6 26.9C59.6 26.9 59.8 26.5 59.8 25.1C59.8 23.9 59.9 23.6 60.3 23.3C60.5 23.1 61 22.8 61.3 22.7C61.2 23.2 60.5 23.4 60.5 23.7C60.5 23.9 60.6 24.1 60.7 24.1L60.8 24C61 23.9 61.2 23.9 61.2 23.9C61.4 23.7 61.7 23.5 61.9 23.5C62.2 23.5 62.5 23.6 62.6 23.7L62.7 23.5C62.6 23.4 62.5 23.2 62.5 23C62.5 22.8 62.3 22.6 62 22.7L62.1 22.5C62.2 22.3 62.5 22.3 62.6 22.3C62.8 22.3 62.9 22.2 63.1 22.3L63.5 21.8L63.6 22.2H63.9V22.5H64.2L64.1 22.8L64.4 23L63.8 23.2C63.8 23.5 63.7 23.9 63.3 24.3C63.3 24.3 63.3 24.4 63.4 24.5C63.4 25 62.9 25.2 62.8 25.3L63 25.7C63.1 25.8 63.3 25.9 63.4 25.9C64.6 25.8 64.5 24 65.2 24C65.9 24 66 24.7 66 25.2C66.1 26.1 66.4 26.7 66 28.4C65.8 29.4 65.5 30.1 65 31C65.1 30.8 65.1 30.5 65.1 30.2V29.8C65.1 28.8 64.8 27.8 64.2 27.1C63.9 26.7 63.5 26.6 63.3 26.6C63 26.6 62.8 26.7 62.6 26.9C62.4 27.1 62.4 27.3 62.4 27.5C62.4 27.8 62.5 28.1 62.7 28.3C62.9 28.5 63.1 29.1 63.1 29.7V29.9C63 30.5 62.8 31 62.3 31.4V31.3C62.4 31 62.5 30.7 62.6 30.4C62.6 30.4 62.7 30 62.7 29.8C62.7 29.6 62.9 29.2 62.9 29C62.7 29.1 62.2 29.7 61.8 29.7C61.7 29.7 61.6 29.7 61.6 29.7C61.6 29.9 61.6 30.3 61.6 30.5C61.6 30.6 61.3 32 61.3 32L60.8 32.1C60.8 32.1 60.5 31.8 60.4 31.8L60.6 30.5L60.2 31.4C60.2 31.4 60.1 31.2 60 31H59.9L59.2 32.2C59.3 32.3 59.6 32.6 59.6 33L59.4 33.1C59.4 33 59.1 32.7 58.9 32.7C58.7 32.7 58.4 33 58.4 33.1L58.3 33C58.3 33 58.4 32.8 58.5 32.6C58.4 32.6 58.3 32.6 58.2 32.6C58 32.6 57.7 32.8 57.6 32.8V32.7C57.6 32.7 57.9 32.4 58.2 32.4C58.2 32.3 58.1 32.3 58 32.3C57.9 32.3 57.7 32.3 57.7 32.3V32.2C57.7 32.2 57.9 32.1 58 32.1C58.3 32.1 58.5 32.3 58.8 32.3L59.5 31C59.5 30.5 59.7 30.4 59.7 30C59.7 29.9 59.7 29.7 59.7 29.7C59.6 29.7 58.9 30 58.8 30C58.6 30 58.7 29.5 58.7 29.4L58.3 28.7C58 28.8 57.7 28.8 57.4 28.8L57.3 28.7C56.8 28.8 56.3 28.8 55.8 28.7L54.7 28.4C54.3 28.1 54 28 53.8 28C53.5 28.1 53 28.5 52.9 28.6C52.8 28.7 52.6 28.7 52.5 28.7C52.4 28.6 52.3 28.5 52.3 28.3C52.3 28.2 52.4 27.7 52.2 27.3C52 27.1 51.8 26.9 51.5 26.8L50.5 26H50.4C49.9 25.6 49.6 25.1 49.4 24.6H49.3L49.1 24.4L48.5 24.3C48.5 24.3 47.9 23.6 47.5 23.5L47.3 23.3C47.3 23.3 47.3 23 47.3 22.8C47.2 22.6 47.1 22.5 47 22.5C46.9 22.6 46.6 23 46.4 23.3C46.2 23.6 45.8 24 45.7 24.1C45.8 24.6 45.9 25 45.9 25.5C45.9 25.5 46 25.6 46.1 25.8C46.2 25.9 46.5 26.3 46.6 26.4C46.6 26.5 46.6 26.6 46.5 26.6C46.3 26.7 46.1 26.5 46 26.5L45.9 26.4L45.8 26.1L45.5 25.8C45.4 25.4 45.4 25 45.3 24.6C45.1 24.3 45 24 45 24V23.8C45.2 23.5 45.6 22.9 45.5 22.6C45.5 22.5 45.3 22.4 45.2 22.3C45.1 22.2 45 22.1 44.9 21.9C44.7 22 44.4 22 44.2 21.6C44.2 21.5 44.2 21.4 44.2 21.3C44.3 21.1 44.5 21.1 44.4 21.3V21.4C44.4 21.5 44.6 21.5 44.8 21.4C44.8 21.1 44.9 20.8 45 20.6C45.2 20.2 45.7 19.9 45.7 19.9C45.7 19.9 45.9 19.6 46.2 19.3C46.4 19.2 46.5 19 46.7 18.9C47.3 18.4 47.7 17.9 47.7 17.8L47.6 17.3C47.3 17 46.9 16.7 46.8 16.3C46.8 16.2 46.8 16.2 46.8 16.1C46.6 16.1 45.8 15.9 45.7 15.6L46.4 15.5L46.1 15.1ZM55.5 29.5C55.1 28.9 56.1 28.7 56.3 28.9C56.8 29.6 57.4 30.4 58.1 31.1L58.3 31.4H58C57.8 31.4 57.5 31.5 57.4 31.6L57.3 31.7L57.2 31.6C56.5 30.8 56 30.1 55.5 29.5ZM56.5 31.6C55.1 30.7 53.7 29.9 52.3 29.2C52.7 29.3 53.1 29.1 53.4 28.9C53.6 28.7 53.7 28.6 53.8 28.6C53.9 28.6 54.1 28.7 54.2 28.7C54.4 29 54.8 29.4 55.1 29.8C55.5 30.4 56 31 56.5 31.6ZM57.2 29.2C57.4 29.2 57.6 29.2 57.8 29.2C57.8 29.3 57.9 29.3 57.9 29.4C57.9 29.6 57.9 30 58.2 30.2L58.8 30.4C58.8 30.4 58.7 30.6 58.6 30.7C58 30.3 57.6 29.7 57.2 29.2ZM47.1 26.7C47.1 26.6 47.2 26.5 47.2 26.4C47.2 26.3 47.2 26.2 47.2 26.1V26C47.2 26 49.2 26 49.8 26C50.4 26 50.5 26.9 50 26.9H47L47.1 26.7ZM46.7 25.4C46.7 25.4 46.6 25.2 46.5 25.2C46.5 24.9 46.4 24.6 46.4 24.3C46.4 24.3 46.4 24.2 46.4 24C46.6 23.8 46.8 23.5 46.8 23.5V23.8C46.8 23.9 47 24.1 47 24.1C47 24.1 47.1 24.1 47.2 24.1C47.2 24.1 47.3 24.2 47.4 24.2L48.1 24.8C48.1 24.8 48.5 24.9 48.7 24.9C48.8 25 48.9 25.2 48.9 25.3C48.4 25.4 47.6 25.5 46.7 25.4ZM49.8 27.4C50.3 27.4 50.9 27.4 51.2 27.4C51.3 27.5 51.5 27.6 51.6 27.7C51.6 27.8 51.6 28.1 51.6 28.4C51.6 28.7 51.8 29.1 52.1 29.3C50.6 28.6 49.1 28 47.6 27.6C48.4 27.4 49.2 27.4 49.8 27.4ZM44.6 24.8C44 24.3 44 23.5 44 23.1C44 22.9 44 22.6 44.1 22.4C44.3 22.5 44.5 22.6 44.7 22.6C44.8 22.7 44.9 22.8 44.9 22.8C44.8 23.1 44.4 23.5 44.4 23.5L44.3 24.1C44.3 24.1 44.5 24.5 44.6 24.8ZM46.4 16.7C46.6 17.1 46.8 17.4 47.1 17.7C47 17.9 46.4 18.4 46 18.7C45.6 18.7 45.2 18.8 45 18.9C44.8 18.6 44.5 18.3 44.2 17.8C45.3 17 45.5 16.1 45.5 16.1C45.5 16.1 45.9 16.6 46.4 16.7ZM34.8 7.1C35.4 7.1 35.8 7.2 36.2 7.4V3.7H34.4V2.6H36.2V0.8H37.4V2.6H39.2V3.7H37.4V7.3C37.7 7.2 38.1 7.1 38.6 7.1C40.4 7.1 41.7 8.5 41.7 10.5H40.5C40.5 9.4 39.8 8.2 38.4 8.2C37.6 8.2 37 8.8 36.7 9.2C36.4 8.7 35.9 8.2 35 8.2C33.5 8.2 32.9 9.4 32.9 10.5H31.7C31.7 8.4 33 7.1 34.8 7.1ZM30.4 11.2H42.9V12.2H30.4V11.2ZM36.7 16.8C35.3 16.8 33.3 14.9 32.3 12.8H33.6C34.4 14.3 35.7 15.7 36.7 15.7C37.7 15.7 39 14.4 39.8 12.8H41.1C40.1 14.9 38.2 16.8 36.7 16.8ZM41.4 17.1C41.3 17.1 41.2 17.2 41.2 17.2C41 16.7 40.7 16.2 40.4 15.7C40.5 15.5 40.7 15.4 40.8 15.2C40.8 15.7 41 16.3 41.4 17.1ZM38.9 17C39.1 17.3 39.2 17.5 39.3 17.8C38.4 18.1 37.4 18.6 36.7 19.3C36 18.6 35.1 18.2 34.1 17.8C34.2 17.5 34.4 17.2 34.5 17C35.2 17.5 36 17.8 36.7 17.8C37.4 17.8 38.2 17.5 38.9 17ZM33.1 15.6C32.8 16.1 32.5 16.6 32.3 17.2C32.2 17.2 32.1 17.1 32.1 17.1C32.5 16.4 32.7 15.7 32.7 15.1C32.8 15.2 32.9 15.4 33.1 15.6ZM30.4 12.9C31.4 12.9 32.2 13.9 32.2 14.9C32.2 15.9 31.6 17 31.4 17.4C31.8 17.6 32.2 17.7 32.6 17.9C32.7 17.5 33.1 16.7 33.6 15.8L33.7 15.6L33.8 15.7C34 15.9 34.1 16 34.3 16.2L34.4 16.3L34.3 16.4C33.8 17.2 33.5 17.9 33.5 18.1C34.7 18.5 36.1 19.1 36.7 20C37.4 19 38.7 18.5 39.9 18.1C39.7 17.6 39.4 16.9 39.1 16.4L39 16.3L39.1 16.2C39.3 16.1 39.4 15.9 39.6 15.7L39.7 15.6L39.8 15.8C40.4 16.7 40.7 17.5 40.8 17.8C41.3 17.6 41.8 17.4 42 17.3C41.8 16.9 41.2 15.8 41.2 14.8C41.2 13.9 42 12.8 43 12.8C44.1 12.8 45 13.9 45 15.2C45 16.2 44.5 17 43.5 17.6C44.1 18.5 44.7 19.1 44.9 19.4C45 19.4 45.9 19.1 45.9 19.1L45.3 19.6C44.6 20.1 44.5 20.6 44.5 20.6H44.4C44 20.6 43.7 21 43.7 21.4V21.5V21.6V21.7C43.5 22.1 43.4 22.6 43.4 23.1C43.4 23.3 43.4 24.9 44.8 25.6H44.9L45 26C45.1 26.1 45.3 26.3 45.3 26.3L45.5 26.7L45.7 26.9H45.3C41.2 26.6 39.2 25.5 38.8 25.2C38.4 25.5 37.1 26.3 36.7 26.3C36.3 26.3 35 25.4 34.6 25.2C34 25.5 31 27 26.3 27C25.5 27 24.6 27 23.9 27C23.7 27 23.6 26.1 23.9 26.1C24.2 26.1 25.8 26.1 26.6 26.1H26.8C29 26.1 29.8 24.6 29.8 23.3C29.8 22.5 29.5 21.7 29 21.2C28.4 20.6 27.6 20.4 27.1 20.4C25.2 20.4 24.2 21.6 24.2 21.6C24.1 21.7 24 21.8 23.8 21.8C23.7 21.8 23.6 21.8 23.5 21.7C23.4 21.6 23.3 21.5 23.3 21.4C23.3 21.3 23.3 21.1 23.4 21C23.5 20.9 24.7 19.4 27.1 19.4C27.7 19.4 28.1 19.6 28.4 19.7C29 19 29.6 18.3 29.8 17.9C29.4 17.7 28.3 16.9 28.3 15.5C28.4 14 29.3 12.9 30.4 12.9ZM21.1 28.3C21.1 28.4 21 28.6 20.9 28.7C20.8 28.8 20.6 28.7 20.5 28.6C20.5 28.6 20 28.1 19.5 28C19.9 27.7 20.7 27.3 21.3 27.2C21.1 27.6 21.1 28.3 21.1 28.3ZM21.2 29.2C19.7 29.9 18.3 30.7 16.9 31.6C17.5 30.9 17.9 30.3 18.3 29.9C18.6 29.5 19.2 28.8 19.3 28.7C19.6 28.6 20 29 20 29.1C20.3 29.3 20.8 29.4 21.2 29.2ZM21.8 28.3C21.8 28.3 21.8 28.1 21.8 28C21.8 27.8 21.8 27.5 22 27.4C22.2 27.4 23.1 27.4 23.6 27.4C24.2 27.4 25 27.4 25.8 27.4C24.2 27.9 22.7 28.5 21.3 29.2C21.6 29 21.8 28.7 21.8 28.3ZM23.2 22.5L25.6 22.4C25.6 22.3 25.6 22.3 25.6 22.3C25.6 21.5 26.3 20.8 27.1 20.8C28 20.8 28.4 21.6 28.5 21.8C28.7 21.9 29.5 22.2 29.5 23.2C29.5 24.2 28.7 24.5 28.5 24.6C28.4 24.8 28.1 25.6 27.1 25.6C26.2 25.6 25.6 24.8 25.6 24.1V24H23.7C23.7 24 23.7 23.9 23.6 23.9C23.1 23.3 23 22.9 23.2 22.5ZM23.1 20.8L22.9 19.9C23.5 19.2 23.9 18.7 24.2 18.4C24.2 18.4 24.8 18.9 25.2 19.2C24 19.6 23.2 20.4 23.1 20.8ZM25.5 25.4C24.9 25.4 24.4 25.4 24 25.4C24 25.1 23.9 25 23.9 24.6C24.5 24.6 24.9 24.6 25.1 24.6C25.1 24.8 25.3 25.2 25.5 25.4ZM28 16.3C28 16.3 28.4 17.3 29.2 17.8C28.9 18.2 28.6 18.6 28.4 18.9C28 18.8 27.7 18.7 27.3 18.7C26.8 18.7 26.3 18.8 25.9 18.9L28 16.3ZM25.2 14L26.2 14.8L26 15.1L26.6 15.6L26.8 15.3L27.5 15.9L26.5 17.1L25.8 16.5L26 16.2L25.4 15.7L24.7 16.6L25.3 17.1L25.5 16.8L26.2 17.4L25.2 18.5L24.5 17.9L24.7 17.6L24.1 17.1L22.4 19.1C22.4 19.1 22.4 19.1 22.4 19C22 18.7 21.8 18.4 21.9 17.7L25.2 14ZM13.7 19.8L13.9 19.7C14.2 19.5 14.8 19.1 14.7 18.7C14.6 18.2 14.6 17.4 15.5 17C16.4 16.6 17 17.1 17.4 17.5C17.5 17.6 17.7 17.7 17.8 17.7C18.4 17.7 19.2 17.3 20.3 17.3C21 17.3 21.4 17.5 21.6 17.9C22.5 20.4 23.4 26.1 23.4 26.1C23.4 26.1 21.8 26.2 20.1 27C18.7 27.7 17.3 29 17.3 29C17.3 29 13.5 24.6 12.1 22.3C11.9 21.6 12.4 20.7 13.7 19.8ZM15.2 29.1C15.3 29 15.6 28.7 15.9 28.2C16.2 28.5 16.3 28.6 16.4 28.8C16.1 29.2 15.8 29.6 15.4 30C15.5 29.7 15.4 29.3 15.2 29.1ZM14.5 29.1C14.8 29.4 15 29.7 15 30.1C15 31.1 14.3 31.7 13.7 31.7C13.5 31.7 13.2 31.6 13.1 31.6C13 31.7 12.7 31.8 12.4 31.8C11.6 31.8 10.9 31.1 10.9 30.4C10.9 30.2 11 30 11 29.9C11 29.8 10.8 29.5 10.8 29.3C10.8 28.9 10.9 28.5 11.1 28.2C11.4 27.9 11.7 27.7 12.1 27.7H12.2C12.5 27.7 12.9 27.8 13.1 28L13.2 28.1L14.6 26.4C14.6 26.4 15 26.5 15.3 26.8C15.5 27.1 15.6 27.5 15.6 27.5L14.3 29C14.4 29.1 14.4 29.1 14.5 29.1ZM13.6 25.3C13.5 25.2 13.3 25.2 13.2 25.2C13.1 25.2 12.2 25.2 11.1 25.8C11.1 25.3 11.1 24.5 11.1 24.5C11.4 24.5 12.1 24.5 13.1 24.5C13.1 24.5 13.4 24.9 13.6 25.3ZM8.9 25.5V24.6H9.3V23.8H8.1V24.6H8.5V25.5H7V24.6H7.4V23.8H7V22.5H11.9C12.6 22.9 12.6 23.2 12.7 23.8H10V24.6H10.4V25.5H8.9ZM5.4 39.1C5.4 38.3 5.9 37.6 6.8 37C7.1 36.8 7.4 36.7 7.7 36.6L9 36L9.6 35.7H9.3C7.1 35.7 6.1 35.1 6.1 34C6.1 33.8 6.3 33.5 6.6 33.5C6.8 33.5 7 33.7 7 34C7 34.2 7 34.3 7.1 34.3C7.5 34.7 8.8 34.7 9.2 34.7C10.4 34.7 11.6 34.2 12.4 33.7C11.6 33.6 10.9 33.3 10.2 32.8C9.4 32.1 8.9 31.2 8.8 30.2C8.7 29.2 9 28.2 9.6 27.5C11.1 25.7 13.1 25.7 13.2 25.7C13.5 25.7 13.7 25.9 13.7 26.2C13.7 26.5 13.5 26.7 13.2 26.7C13.2 26.7 11.6 26.7 10.4 28.1C10.1 28.5 9.8 29.2 9.8 30.1C9.9 30.9 10.2 31.5 10.9 32.1C11.1 32.3 11.8 32.8 12.8 32.8C13.6 32.8 14.3 32.4 14.9 31.7L15 31.6C15.7 30.8 16.7 29.6 17 29.3C17.2 29 18 29.5 17.7 29.9C16.9 30.9 16 32.1 14.5 33.5C14.3 33.7 14.3 33.7 14.3 33.7C13.3 34.6 12.3 35.4 11.3 36.1C10 36.8 9.6 37 9.5 37L8 37.5C7.7 37.6 7.5 37.7 7.2 37.9C6.5 38.3 6.2 38.7 6.3 39.2C6.3 39.6 6.6 39.9 6.9 39.9C7.4 39.9 7.4 39.5 7.4 39.3C7.4 39.2 7.5 39 7.5 39C7.6 38.9 7.7 38.9 7.8 38.9C8.1 38.9 8.3 39.1 8.3 39.4C8.3 40.5 7.5 41 6.7 41C6.1 40.9 5.4 40.2 5.4 39.1ZM9.8 37.5C9.3 38.1 9.3 38.1 8.8 38.7C8.8 38.6 8.7 38.6 8.7 38.5C8.5 38.3 8.3 38.2 8.1 38.2C8 38.2 8.2 38.1 8.4 38C8.6 37.9 9.8 37.5 9.8 37.5ZM36.9 98.3C17.2 98.4 1 82.5 0.9 62.7C0.9 54.8 3.4 47.5 7.7 41.5C8 41.4 8.2 41.3 8.4 41.1C8.7 40.8 9 40.4 9.1 39.7C15.6 31.8 25.5 26.7 36.5 26.7C47.7 26.6 57.7 31.7 64.3 39.7C64.5 41 65.4 41.4 65.7 41.5C69.9 47.3 72.5 54.5 72.5 62.3C72.7 82 56.7 98.2 36.9 98.3Z" fill="#015FFF"/>
<path d="M63.9 62.5C63.9 47.5 51.7 35.4 36.8 35.4C21.8 35.4 9.7 47.6 9.7 62.5C9.7 77.5 21.9 89.6 36.8 89.6C51.8 89.7 63.9 77.5 63.9 62.5ZM36.4 88.8C22.2 88.6 10.8 77.1 10.6 62.9H36.4V88.8ZM36.4 62H10.5C10.8 47.9 22.2 36.5 36.3 36.3V62H36.4ZM37.2 36.3C51.3 36.5 62.8 47.9 63 62H37.2V36.3ZM37.2 88.8V62.9H63C62.8 77 51.4 88.5 37.2 88.8Z" fill="#015FFF"/>
<path d="M15.1 82.2C15 82.1 14.8 81.8 14.5 81.5C14.5 81.4 14.4 81.4 14.3 81.5V81.6C14.6 82 14.6 82 13.9 82.6L11.7 84.5C11.6 84.6 11.6 84.6 11.5 84.4C11.1 84 11.2 83.5 11.7 83C12.1 82.6 12.7 82.7 12.9 83C13 83.1 13.1 83.1 13.1 83.1C13.2 83 13.1 82.9 13 82.9C12.4 82.3 11.6 82.2 10.9 82.7C10.4 83.2 10.5 83.9 11 84.5C11.2 84.7 11.4 85 11.6 85.1C11.7 85.2 11.9 85.5 12.1 85.7C12.2 85.8 12.2 85.8 12.3 85.8C12.3 85.8 12.3 85.7 12.3 85.6C12.1 85.3 12 85.2 12.3 84.9L14.4 83C15 82.5 15.1 82.5 15.3 82.8C15.3 82.9 15.4 82.9 15.4 82.8C15.4 82.8 15.4 82.7 15.4 82.6C15.5 82.6 15.2 82.3 15.1 82.2Z" fill="#015FFF"/>
<path d="M11.8 77.7C11 76.4 9.6 76.1 8.5 76.9C7.4 77.6 7.1 78.8 7.9 80.1C8.8 81.6 10.3 81.5 11.1 81C12 80.4 12.7 79.1 11.8 77.7ZM8.2 80C7.7 79.2 8 78.1 9.1 77.5C10.5 76.6 11.2 77.3 11.4 77.7C12 78.6 11.5 79.7 10.5 80.3C9.3 81 8.6 80.6 8.2 80Z" fill="#015FFF"/>
<path d="M9.9 74.7C9.9 74.8 10 74.8 10 74.8C10.1 74.8 10.1 74.7 10 74.6C9.9 74.3 9.8 74.1 9.8 74C9.8 73.9 9.7 73.7 9.6 73.3C9.6 73.2 9.5 73.2 9.5 73.2V73.3C9.6 73.6 9.6 73.8 9.1 74L6.9 74.8L8.8 70.8C8.8 70.7 8.9 70.6 8.9 70.6C8.9 70.5 8.8 70.5 8.7 70.6L5.2 71.8C4.9 71.9 4.7 71.9 4.6 71.6C4.6 71.5 4.5 71.5 4.5 71.5C4.4 71.5 4.4 71.6 4.5 71.7C4.6 72 4.7 72.2 4.7 72.2C4.7 72.3 4.8 72.6 4.9 72.9C4.9 73 5 73.1 5 73C5.1 73 5.1 72.9 5 72.9C4.9 72.5 4.9 72.4 5.3 72.3L7.7 71.4L5.7 75.3C5.7 75.4 5.6 75.5 5.6 75.6C5.6 75.7 5.7 75.7 5.8 75.6L9.2 74.4C9.7 74.3 9.8 74.4 9.9 74.7Z" fill="#015FFF"/>
<path d="M4.60001 70.2C4.70001 70.2 4.70001 70.2 4.70001 70.1C4.70001 70 4.70001 70 4.60001 70C4.40001 70 4.20001 69.9 4.10001 69.4L4.00001 68.6L6.90001 68.1C7.80001 67.9 7.90001 68 7.90001 68.3C7.90001 68.4 7.90001 68.4 8.00001 68.4C8.10001 68.4 8.10001 68.3 8.10001 68.2C8.00001 68 8.00001 67.6 7.90001 67.5C7.90001 67.3 7.80001 67 7.80001 66.6C7.80001 66.5 7.70001 66.5 7.70001 66.5C7.60001 66.5 7.60001 66.6 7.60001 66.6C7.70001 67.1 7.60001 67.1 6.70001 67.3L3.90001 67.8L3.80001 67.1C3.70001 66.6 3.80001 66.4 4.00001 66.4C4.10001 66.4 4.10001 66.3 4.10001 66.3L4.00001 66.2C3.90001 66.2 3.50001 66.3 3.30001 66.3C3.20001 66.3 3.10001 66.3 3.20001 66.4C3.20001 66.4 3.30001 66.6 3.40001 66.9L3.90001 69.5C3.90001 69.8 3.90001 70 3.90001 70C3.90001 70.1 3.90001 70.1 4.00001 70.1C4.00001 70.2 4.50001 70.2 4.60001 70.2Z" fill="#015FFF"/>
<path d="M3.30001 65C3.30001 64.7 3.40001 64.6 3.60001 64.6C3.80001 64.6 3.90001 64.6 4.80001 64.5L5.80001 64.4C6.40001 64.4 6.80001 64.4 7.10001 64.4C7.40001 64.4 7.40001 64.5 7.40001 64.7C7.40001 64.8 7.40001 64.8 7.50001 64.8C7.60001 64.8 7.60001 64.7 7.60001 64.6C7.60001 64.4 7.50001 64 7.50001 63.9C7.50001 63.7 7.50001 63.4 7.50001 63C7.50001 62.9 7.50001 62.9 7.40001 62.9C7.30001 62.9 7.30001 63 7.30001 63C7.30001 63.3 7.30001 63.5 7.10001 63.5C6.90001 63.5 6.40001 63.6 5.80001 63.6H4.80001C3.90001 63.6 3.80001 63.7 3.60001 63.7C3.30001 63.7 3.30001 63.6 3.30001 63.3C3.30001 63.2 3.30001 63.2 3.20001 63.2C3.20001 63.2 3.10001 63.3 3.10001 63.4C3.10001 63.6 3.10001 64 3.20001 64.1C3.20001 64.3 3.20001 64.6 3.20001 64.9C3.20001 65 3.20001 65.1 3.30001 65.1C3.30001 65.1 3.30001 65.1 3.30001 65Z" fill="#015FFF"/>
<path d="M3.2 61.6C3.2 61.6 3.3 61.6 3.3 61.5C3.3 61 3.3 61 3.9 61L6.5 61.2C7.3 61.3 7.3 61.3 7.3 61.6C7.3 61.7 7.3 61.7 7.4 61.7C7.5 61.7 7.5 61.7 7.5 61.6C7.5 61.4 7.5 61 7.5 60.9C7.5 60.7 7.6 60.4 7.6 60C7.6 59.9 7.6 59.8 7.5 59.8C7.4 59.8 7.4 59.8 7.4 59.9C7.4 60.3 7.4 60.4 6.5 60.4L5.6 60.3C5.6 60.2 5.6 59.6 5.7 59.5C5.7 59.3 5.9 59.2 6.1 59.2C6.2 59.2 6.2 59.2 6.2 59.1C6.2 59 6.1 59 6.1 59C5.7 59 5.4 58.9 5.3 58.9C5.3 58.9 5.2 58.9 5.2 59C5.2 59.1 5.4 59.1 5.3 59.4L5.2 60.4L3.5 60.3L3.6 59.4C3.6 59.2 3.7 59.1 3.8 59.1C3.9 59.1 3.9 59.1 4 59.1C4.1 59.1 4.1 59.1 4.1 59C4.1 58.9 4.1 58.9 4 58.9C3.9 58.9 3.6 58.8 3.5 58.8C3.4 58.8 3.4 58.8 3.3 58.7C3.3 58.7 3.2 58.7 3.2 58.8C3.2 58.8 3.2 58.8 3.2 58.9C3.2 59 3.2 59.1 3.2 59.2C3.2 59.3 3.1 60.5 3.1 60.7C3.1 60.9 3 61.2 3 61.5C3.1 61.5 3.1 61.6 3.2 61.6Z" fill="#015FFF"/>
<path d="M3.7 57.1C3.8 56.8 3.9 56.8 4.1 56.8C4.3 56.8 4.4 56.9 5.3 57L6.3 57.2C6.9 57.3 7.3 57.4 7.5 57.5C7.7 57.6 7.8 57.7 7.7 57.9C7.7 58 7.7 58 7.7 58C7.8 58 7.8 58 7.8 57.9C7.8 57.7 7.9 57.3 7.9 57.2C7.9 57 8 56.7 8.1 56.3C8.1 56.2 8.1 56.1 8 56.1C7.9 56.1 7.9 56.1 7.9 56.2C7.8 56.5 7.8 56.7 7.5 56.6C7.3 56.6 6.8 56.5 6.2 56.4L5.2 56.2C4.5 56 4.4 56 4.2 56C4 55.9 3.9 55.8 4 55.5C4 55.4 4 55.4 3.9 55.4C3.9 55.4 3.8 55.4 3.8 55.5C3.8 55.7 3.7 56.1 3.7 56.2C3.7 56.4 3.6 56.7 3.5 56.9C3.5 57 3.5 57.1 3.5 57.1C3.6 57.2 3.7 57.1 3.7 57.1Z" fill="#015FFF"/>
<path d="M6.2 54.2C7.8 54.8 8.9 53.7 9.4 52.4C9.5 52 9.60001 51.6 9.60001 51.3C9.60001 51.2 9.60001 51.1 9.50001 51.1C9.30001 51 8.90001 50.7 8.80001 50.7C8.70001 50.7 8.7 50.7 8.7 50.7C8.7 50.8 8.70001 50.8 8.80001 50.8C9.20001 51.1 9.30001 51.4 9.00001 52.2C8.70001 53.2 7.8 53.7 6.50001 53.3C5.50001 52.9 4.90001 52.2 5.30001 51.2C5.50001 50.5 6.00001 50 6.60001 50.2C6.70001 50.2 6.80001 50.2 6.80001 50.2C6.80001 50.1 6.8 50.1 6.7 50.1C6.5 50 6.20001 49.9 6.00001 49.8C5.80001 49.7 5.8 49.7 5.7 49.7C5.6 49.7 5.60001 49.7 5.60001 49.8C5.50001 50.1 5.20001 50.5 5.00001 51.1C4.50001 52.4 4.9 53.8 6.2 54.2Z" fill="#015FFF"/>
<path d="M6.5 48.1C6.6 47.8 6.7 47.8 7 47.9C7.2 48 7.3 48.1 8.1 48.4L9 48.9C9.5 49.2 9.9 49.4 10.1 49.5C10.3 49.6 10.3 49.7 10.2 49.9C10.2 50 10.2 50 10.2 50C10.2 50 10.3 50 10.4 49.9C10.5 49.7 10.7 49.3 10.7 49.2C10.8 49.1 11 48.7 11.1 48.4C11.1 48.3 11.1 48.2 11.1 48.2C11.1 48.2 11 48.2 11 48.3C10.9 48.6 10.7 48.7 10.5 48.6C10.3 48.5 9.9 48.3 9.4 48L8.5 47.5C7.7 47.1 7.6 47 7.4 46.9C7.2 46.8 7.2 46.7 7.3 46.4C7.3 46.4 7.3 46.3 7.3 46.2C7.3 46.2 7.2 46.2 7.2 46.3C7.1 46.5 7 46.8 6.9 46.9C6.8 47.1 6.6 47.4 6.5 47.6C6.4 47.7 6.4 47.8 6.5 47.8C6.4 48.2 6.5 48.1 6.5 48.1Z" fill="#015FFF"/>
<path d="M11.2 46.9C11.4 47.3 11.5 47.4 11.2 47.7V47.8C11.3 47.8 11.3 47.8 11.4 47.7C11.6 47.5 11.7 47.2 11.8 47.1C11.9 47 12.1 46.7 12.2 46.6C12.2 46.5 12.3 46.5 12.2 46.4C12.2 46.4 12.1 46.4 12 46.5C11.9 46.7 11.8 46.7 11.7 46.6C11.6 46.6 11.6 46.5 11.5 46.3L11.2 45.8C11.2 45.8 11.2 45.8 11.2 45.7L12 44.5C12 44.5 12 44.5 12.1 44.5L13.1 44.7C13.2 44.7 13 45 13 45V45.1C13 45.1 13.1 45.1 13.2 45C13.3 44.9 13.5 44.6 13.6 44.5C13.7 44.4 13.9 44.2 13.9 44.1C14 44 14 43.9 14 43.9C13.9 43.9 13.9 43.9 13.9 43.9C13.7 44.1 13.4 44.1 13 44C12.1 43.8 9.59999 43.2 9.19999 43.2C8.99999 43.2 8.99999 43.2 8.89999 43.2C8.89999 43.3 8.89999 43.3 8.99999 43.5L11.2 46.9ZM11.7 44.6L11 45.6L9.99999 44.1L11.7 44.6Z" fill="#015FFF"/>
<path d="M13.5 38.2C13.8 37.9 13.9 38 14.3 38.4L15.4 39.7C16.3 40.7 17.1 40.8 18.1 40C19.1 39.1 18.9 38.2 18.1 37.2L17.1 36.1C16.7 35.7 16.7 35.6 17 35.3C17.1 35.2 17.1 35.2 17 35.1C17 35.1 16.9 35.1 16.8 35.1C16.6 35.2 16.5 35.4 16.3 35.5C16.2 35.6 16 35.7 15.8 35.9C15.7 36 15.7 36 15.7 36.1C15.7 36.1 15.8 36.1 15.9 36.1C16.2 35.8 16.3 35.9 16.7 36.3L17.7 37.5C18.4 38.4 18.6 39 17.9 39.5C17.2 40.1 16.5 39.7 16 39L14.9 37.7C14.5 37.3 14.5 37.2 14.8 36.9C14.9 36.8 14.9 36.8 14.8 36.8C14.8 36.8 14.7 36.8 14.6 36.8C14.4 36.9 14.2 37.1 14.1 37.3C13.9 37.5 13.7 37.6 13.4 37.8C13.3 37.9 13.3 37.9 13.3 38C13.4 38.3 13.4 38.3 13.5 38.2Z" fill="#015FFF"/>
<path d="M20.6 37.1C20.9 37.6 20.8 37.7 20.5 37.8C20.4 37.8 20.4 37.9 20.4 37.9C20.4 38 20.5 38 20.6 37.9C20.9 37.8 21.1 37.6 21.1 37.6C21.2 37.5 21.4 37.4 21.8 37.3C21.9 37.3 21.9 37.2 21.9 37.1H21.8C21.5 37.3 21.3 37.3 21 36.8L19.8 34.7L24 35.9C24.1 35.9 24.2 35.9 24.3 35.9C24.4 35.9 24.4 35.8 24.3 35.7L22.6 32.4C22.4 32.1 22.4 31.9 22.7 31.8C22.8 31.8 22.8 31.7 22.8 31.7C22.8 31.6 22.7 31.7 22.6 31.7C22.3 31.8 22.2 32 22.1 32C22 32.1 21.7 32.2 21.5 32.3C21.4 32.4 21.3 32.4 21.4 32.5C21.4 32.6 21.5 32.5 21.5 32.5C21.8 32.3 22 32.3 22.2 32.7L23.5 34.9L19.3 33.6C19.2 33.6 19 33.5 19 33.6C18.9 33.6 19 33.7 19 33.8L20.6 37.1Z" fill="#015FFF"/>
<path d="M24.5 31.3C24.8 31.2 24.9 31.3 25 31.5C25.1 31.7 25.1 31.8 25.4 32.7L25.7 33.7C25.9 34.2 26 34.7 26.1 34.9C26.2 35.1 26.1 35.2 25.9 35.3C25.8 35.3 25.8 35.4 25.8 35.4C25.8 35.5 25.9 35.5 26 35.4C26.2 35.3 26.6 35.2 26.7 35.1C26.8 35 27.2 34.9 27.6 34.8C27.7 34.8 27.7 34.7 27.7 34.7C27.7 34.6 27.6 34.6 27.6 34.7C27.3 34.8 27.1 34.8 27 34.6C26.9 34.4 26.7 33.9 26.5 33.4L26.2 32.4C25.9 31.6 25.8 31.4 25.8 31.2C25.7 30.9 25.8 30.9 26 30.8C26.1 30.8 26.1 30.7 26.1 30.7C26.1 30.7 26 30.7 25.9 30.7C25.7 30.8 25.4 30.9 25.2 31C25 31.1 24.7 31.2 24.5 31.2C24.4 31.2 24.3 31.3 24.4 31.3C24.4 31.3 24.4 31.3 24.5 31.3Z" fill="#015FFF"/>
<path d="M27.3 30.2C27.7 30.1 27.9 30.3 28 30.5L30.3 33.8C30.4 33.9 30.5 34 30.5 34C30.6 34 30.6 33.9 30.7 33.7L31.5 29.9C31.6 29.4 31.7 29.3 31.9 29.2C32 29.2 32 29.2 32 29.1C32 29 31.9 29 31.8 29C31.6 29 31.5 29.1 31.3 29.1C31.1 29.1 31 29.1 30.7 29.2C30.6 29.2 30.5 29.3 30.5 29.3C30.5 29.3 30.6 29.4 30.6 29.3C30.8 29.3 30.9 29.3 30.9 29.3C30.9 29.3 30.9 29.4 30.9 29.5L30.4 32.5L28.9 30.2C28.8 30 28.7 29.9 28.7 29.8C28.7 29.7 28.8 29.6 28.9 29.6C29 29.6 29 29.6 29 29.5C29 29.4 28.9 29.4 28.8 29.5C28.5 29.6 28.2 29.6 28.1 29.7C27.9 29.7 27.6 29.8 27.3 29.9C27.2 29.9 27.1 30 27.1 30C27.2 30.2 27.2 30.2 27.3 30.2Z" fill="#015FFF"/>
<path d="M33.3 29.1C33.6 29.1 33.8 29.2 33.8 29.4C33.8 29.6 33.8 29.7 33.9 30.6L34 31.6C34 31.9 34 32.2 34 32.4C34 33.1 34 33.1 33.7 33.1C33.6 33.1 33.6 33.1 33.6 33.2C33.6 33.3 33.6 33.3 33.7 33.3C33.9 33.3 34.3 33.2 34.4 33.2C35 33.2 35.6 33.2 36.2 33.1C36.3 33.1 36.4 33 36.4 32.9C36.4 32.8 36.4 32.4 36.4 32.2C36.4 32.1 36.4 32.1 36.3 32.1C36.2 32.1 36.2 32.1 36.2 32.2C36.2 32.4 36.1 32.5 36 32.6C35.9 32.7 35.4 32.7 35.3 32.7C34.9 32.7 34.8 32.7 34.8 32.3C34.8 32.1 34.8 31.6 34.7 31C34.7 31 35.4 31 35.5 31C35.8 31 35.8 31.2 35.9 31.4C35.9 31.4 35.9 31.5 36 31.5C36.1 31.5 36.1 31.4 36.1 31.4C36.1 31.1 36.1 30.7 36.1 30.6C36.1 30.5 36.1 30.5 36 30.5L35.9 30.6C35.9 30.6 35.7 30.7 35.4 30.7C35.2 30.7 34.9 30.7 34.8 30.7C34.8 30.7 34.8 30.7 34.7 30.7L34.6 29.1C35.7 29 35.8 29.1 35.9 29.4C35.9 29.4 35.9 29.5 36 29.5C36.1 29.5 36.1 29.5 36.1 29.4C36.1 28.9 36.1 28.8 36.1 28.6C36.1 28.6 36.1 28.5 36 28.5C36 28.5 35.9 28.6 35.7 28.6C35.6 28.6 34.4 28.7 34.2 28.7C34 28.7 33.7 28.7 33.4 28.7C33.3 28.7 33.2 28.7 33.2 28.8C33.1 29.1 33.2 29.1 33.3 29.1Z" fill="#015FFF"/>
<path d="M37.7 33.2C37.9 33.2 38.3 33.2 38.4 33.2C38.5 33.2 38.9 33.3 39.3 33.3C39.4 33.3 39.4 33.3 39.4 33.2C39.4 33.1 39.4 33.1 39.3 33.1C38.8 33.1 38.8 32.9 38.8 32.3L38.9 31.4L39.4 31.5C39.4 31.5 39.5 31.5 39.5 31.6C39.7 31.9 39.8 32.2 40 32.4C40.4 33.1 40.7 33.4 41.4 33.5L42 33.6C42.1 33.6 42.1 33.6 42.1 33.5C42.1 33.4 42.1 33.4 42 33.4C41.5 33.4 41.2 33 40.1 31.3C40.7 30.9 40.9 30.5 41 30.1C41.1 29.3 40.3 29 39.6 28.9C39.4 28.9 39 28.9 38.8 28.8C38.7 28.8 38.3 28.7 38 28.7C37.9 28.7 37.8 28.7 37.8 28.8C37.8 28.9 37.8 28.9 37.9 28.9C38.4 28.9 38.4 29 38.3 29.6L38 32.4C37.9 33 37.9 33.1 37.6 33.1C37.5 33.1 37.5 33.1 37.5 33.2C37.5 33.2 37.6 33.2 37.7 33.2ZM39.2 29.3C39.2 29.3 39.2 29.2 39.5 29.3C40 29.3 40.3 29.8 40.3 30.4C40.3 30.9 40 31.3 39.5 31.3C39.2 31.3 39 31.2 39 31.1L39.2 29.3Z" fill="#015FFF"/>
<path d="M43.5 34.1C44.3 34.3 45.1 34 45.3 33.2C45.6 31.9 44 31.3 44.2 30.4C44.3 30.1 44.6 29.9 45 30C45.4 30.1 45.7 30.5 45.6 30.8C45.6 30.9 45.6 30.9 45.7 31C45.8 31 45.8 31 45.8 30.8C45.9 30.4 46 30.2 46 30.1C46 30.1 46 30 45.9 30C45.8 29.9 45.5 29.8 45.1 29.7C44.3 29.5 43.6 29.8 43.5 30.5C43.2 31.8 44.8 32.3 44.6 33.3C44.5 33.6 44.2 33.9 43.7 33.7C43.1 33.6 43 33.1 43.1 32.7C43.1 32.6 43.1 32.6 43 32.6C42.9 32.6 42.9 32.6 42.9 32.7L42.7 33.5C42.5 33.7 42.9 34 43.5 34.1Z" fill="#015FFF"/>
<path d="M46.2 34.8C46.4 34.9 46.8 35 46.9 35C47 35.1 47.4 35.2 47.7 35.3C47.8 35.3 47.9 35.3 47.9 35.3C47.9 35.2 47.9 35.2 47.8 35.2C47.5 35.1 47.4 35 47.4 34.8C47.5 34.6 47.6 34.1 47.8 33.6L48.2 32.6C48.5 31.8 48.6 31.6 48.6 31.5C48.7 31.3 48.8 31.2 49.1 31.3C49.2 31.3 49.2 31.3 49.3 31.3C49.3 31.3 49.3 31.2 49.2 31.2C49 31.1 48.7 31 48.5 31C48.3 30.9 48 30.8 47.8 30.7C47.7 30.7 47.6 30.7 47.6 30.7C47.6 30.8 47.6 30.8 47.7 30.8C48 30.9 48 31 48 31.2C47.9 31.4 47.9 31.5 47.6 32.4L47.2 33.4C47 33.9 46.8 34.4 46.7 34.6C46.6 34.8 46.5 34.8 46.3 34.8C46.2 34.8 46.2 34.8 46.2 34.8C46.1 34.8 46.1 34.7 46.2 34.8Z" fill="#015FFF"/>
<path d="M49.1 35.7C49.1 35.7 49.1 35.8 49.2 35.8C49.4 35.9 49.7 36.1 49.9 36.1C50.2 36.2 50.6 36.6 51 36.8C52.3 37.5 53.7 37.4 54.4 36.1C55.2 34.7 54.4 33.6 52.9 32.8C52.6 32.6 52.3 32.5 52.1 32.4C52 32.3 51.6 32.1 51.4 32C51.3 31.9 51.2 31.9 51.2 32C51.2 32 51.2 32.1 51.3 32.1C51.6 32.3 51.7 32.4 51.5 32.6C51.4 32.8 51.3 32.9 50.9 33.7L50.4 34.6C49.7 35.9 49.6 35.9 49.4 35.8C49.2 35.7 49.1 35.7 49.1 35.7ZM50.8 35.4L52.1 33C52.2 32.8 52.2 32.8 52.6 33C53.7 33.6 54.2 34.7 53.5 35.8C52.9 36.9 52.1 37.1 51 36.5C50.4 36.2 50.4 36.1 50.8 35.4Z" fill="#015FFF"/>
<path d="M53.8 38.4C53.8 38.4 53.7 38.3 53.7 38.4C53.7 38.4 53.7 38.5 53.8 38.6C54 38.8 54.3 39 54.3 39C54.4 39.1 54.6 39.3 54.8 39.4C54.9 39.5 54.9 39.5 55 39.4C55 39.4 55 39.3 54.9 39.2C54.8 39.1 54.8 39 54.8 38.9C54.8 38.9 55 38.8 55.1 38.7L55.7 38.4C55.7 38.4 55.7 38.4 55.8 38.4L56.9 39.3C56.9 39.3 56.9 39.3 56.9 39.4L56.6 40.4C56.6 40.5 56.3 40.3 56.3 40.3H56.2C56.2 40.3 56.2 40.4 56.3 40.5C56.4 40.6 56.7 40.8 56.8 40.9C56.9 41 57.1 41.2 57.2 41.3C57.4 41.5 57.5 41.5 57.5 41.4C57.5 41.3 57.5 41.3 57.5 41.3C57.3 41.1 57.4 40.8 57.5 40.4C57.8 39.5 58.6 37.1 58.7 36.7C58.7 36.5 58.7 36.5 58.7 36.4C58.7 36.4 58.6 36.4 58.4 36.5L54.9 38.4C54.2 38.6 54.1 38.6 53.8 38.4ZM57.5 37.4L56.9 39L56 38.2L57.5 37.4Z" fill="#015FFF"/>
<path d="M58.1 42.1C58 42 58 42 57.9 42C57.9 42 57.9 42.1 57.9 42.2C58 42.4 58.3 42.7 58.4 42.8C58.6 43 58.9 43.5 59.1 43.8C60 44.9 61.4 45.4 62.6 44.4C63.8 43.4 63.5 42.1 62.4 40.7C62.2 40.4 61.9 40.2 61.8 40C61.7 39.9 61.5 39.6 61.3 39.3C61.2 39.2 61.2 39.2 61.1 39.2C61.1 39.2 61.1 39.3 61.1 39.4C61.3 39.6 61.3 39.8 61.1 40C61 40.1 60.8 40.2 60.2 40.8L59.4 41.5C58.4 42.3 58.3 42.3 58.1 42.1ZM59.6 42.3L61.7 40.6C61.8 40.5 61.9 40.5 62.1 40.8C62.9 41.8 62.9 43 62 43.8C61 44.6 60.2 44.5 59.4 43.6C58.9 42.9 59 42.8 59.6 42.3Z" fill="#015FFF"/>
<path d="M64.3 52.3C64.4 52.4 64.4 52.4 64.5 52.4C64.7 52.4 65.2 52.2 65.3 52.2C65.4 52.2 65.4 52.1 65.4 52.1C65.4 52 65.3 52 65.2 52.1C64.7 52.2 64.4 52 64.1 51.2C63.7 50.3 64 49.3 65.2 48.7C66.2 48.3 67.1 48.4 67.5 49.5C67.8 50.1 67.8 50.9 67.3 51.1C67.2 51.1 67.2 51.2 67.2 51.2C67.2 51.3 67.3 51.3 67.4 51.2C67.5 51.2 67.8 51 68 51C68.2 50.9 68.3 50.9 68.3 50.9C68.3 50.9 68.4 50.8 68.3 50.8C68.2 50.5 68.2 50 67.9 49.4C67.3 48.1 66.1 47.3 64.8 47.9C63.3 48.5 63.1 50.1 63.7 51.4C63.9 51.7 64.1 52.1 64.3 52.3Z" fill="#015FFF"/>
<path d="M64.8 53.1C64.6 53 64.6 53.1 64.7 53.2C64.8 53.5 64.9 53.8 64.9 53.9C64.9 54.1 65 54.3 65 54.5C65 54.6 65 54.6 65.1 54.6C65.2 54.6 65.2 54.5 65.1 54.4C65.1 54.2 65.1 54.2 65.2 54.1C65.3 54.1 65.4 54.1 65.6 54.1L66.2 54.2L66.5 55.6C66.5 55.6 66.5 55.6 66.5 55.7L65.6 56.3C65.5 56.3 65.4 56 65.4 56C65.4 56 65.4 55.9 65.3 55.9C65.2 55.9 65.2 56 65.3 56.1C65.3 56.2 65.4 56.6 65.5 56.7C65.5 56.9 65.6 57.1 65.6 57.3C65.7 57.5 65.7 57.6 65.8 57.6C65.9 57.6 65.9 57.5 65.9 57.5C65.8 57.2 66.1 57 66.4 56.8C67.2 56.2 69.2 54.7 69.5 54.5C69.6 54.4 69.7 54.3 69.7 54.3C69.7 54.2 69.6 54.2 69.4 54.2L65.5 53.6C65 53.6 64.9 53.5 64.8 53.1ZM68.3 54.5L66.8 55.5L66.5 54.3L68.3 54.5Z" fill="#015FFF"/>
<path d="M69.5 57.7C69.4 57.7 69.4 57.7 69.4 57.8C69.4 57.9 69.4 57.9 69.5 57.9C69.7 57.9 69.8 58.1 69.9 58.5L70 59.3L67.1 59.5C66.2 59.6 66.1 59.5 66.1 59.2C66.1 59.1 66.1 59.1 66 59.1C65.9 59.1 65.9 59.1 65.9 59.2C65.9 59.4 66 59.8 66 59.9C66 60.1 66 60.4 66.1 60.8C66.1 60.9 66.1 60.9 66.2 60.9C66.3 60.9 66.3 60.8 66.3 60.8C66.3 60.3 66.3 60.3 67.3 60.2L70.2 60V60.7C70.2 61.2 70.1 61.4 69.9 61.4C69.8 61.4 69.8 61.5 69.8 61.5C69.8 61.5 69.8 61.6 69.9 61.6C70 61.6 70.5 61.6 70.6 61.6C70.7 61.6 70.8 61.6 70.7 61.5C70.7 61.5 70.6 61.3 70.6 60.9L70.4 58.3C70.4 58 70.5 57.8 70.5 57.8C70.5 57.7 70.5 57.7 70.4 57.7C70.1 57.7 69.6 57.7 69.5 57.7Z" fill="#015FFF"/>
<path d="M71.2 66.3C71.2 66.3 70.7 65.4 70.5 65.1C70.5 63.6 69.3 62.9 68.4 62.8C67.4 62.7 66 63.3 65.9 65C65.8 66.5 66.7 67.6 68.1 67.7C69.4 67.8 70.3 67 70.5 65.6C70.6 66.1 70.8 66.7 70.8 66.7C70.8 66.8 70.9 66.8 71 66.8C71.1 66.7 71.2 66.7 71.2 66.7C71.2 66.5 71.2 66.4 71.2 66.3ZM70.1 65.3C70 66.2 69.2 66.9 67.9 66.8C66.2 66.7 66.1 65.7 66.2 65.3C66.3 64.2 67.3 63.6 68.5 63.7C69.9 63.8 70.2 64.6 70.1 65.3Z" fill="#015FFF"/>
<path d="M69.6 69.7C69.5 70.1 69.4 70.1 68.7 69.9L66.5 69.3C65.6 69.1 65.5 69 65.6 68.7C65.6 68.6 65.6 68.6 65.6 68.6C65.5 68.6 65.5 68.6 65.5 68.7C65.4 68.9 65.4 69.3 65.3 69.4C65.2 69.9 65 70.2 64.8 71.1C64.7 71.4 64.7 71.5 64.9 71.5C65.1 71.6 65.5 71.8 65.6 71.8C65.7 71.8 65.7 71.8 65.7 71.8C65.7 71.7 65.7 71.7 65.6 71.7C65.2 71.5 65.1 71.4 65.3 70.8C65.5 70.1 65.6 70 66.3 70.2L68.5 70.8C69.2 71 69.2 71 69.1 71.4C69.1 71.5 69.1 71.5 69.2 71.6C69.2 71.6 69.3 71.6 69.3 71.5C69.4 71.3 69.5 70.9 69.5 70.7C69.5 70.5 69.7 70.2 69.7 69.9C69.7 69.8 69.7 69.7 69.7 69.7C69.6 69.6 69.6 69.6 69.6 69.7Z" fill="#015FFF"/>
<path d="M68.2 74.4C68.1 74.7 68 74.7 67.8 74.6C67.6 74.5 67.5 74.5 66.7 74.1L65.8 73.7C65.3 73.5 64.9 73.3 64.6 73.2C64.4 73.1 64.4 73 64.5 72.8C64.5 72.7 64.5 72.7 64.5 72.7C64.4 72.7 64.4 72.7 64.4 72.8C64.3 73 64.2 73.4 64.1 73.5C64 73.6 63.9 74 63.7 74.3C63.7 74.4 63.7 74.5 63.7 74.5C63.7 74.5 63.8 74.5 63.8 74.4C63.9 74.1 64 74 64.2 74C64.4 74.1 64.9 74.2 65.4 74.5L66.3 74.9C67.1 75.2 67.3 75.3 67.4 75.4C67.6 75.5 67.7 75.6 67.6 75.9C67.6 76 67.6 76 67.6 76.1C67.6 76.1 67.7 76.1 67.7 76C67.8 75.8 67.9 75.5 68 75.3C68.1 75.1 68.2 74.8 68.3 74.6C68.3 74.5 68.3 74.4 68.3 74.4C68.2 74.2 68.2 74.3 68.2 74.4Z" fill="#015FFF"/>
<path d="M65.1 76.6C63.7 75.7 62.4 76.5 61.6 77.8C61.4 78.1 61.2 78.5 61.2 78.8C61.2 78.9 61.2 79 61.3 79C61.4 79.2 61.8 79.5 61.9 79.5C62 79.5 62 79.5 62 79.5C62 79.4 62 79.4 61.9 79.3C61.6 78.9 61.5 78.6 61.9 77.9C62.4 77 63.4 76.7 64.6 77.4C65.5 78 65.9 78.8 65.4 79.7C65.1 80.3 64.5 80.8 63.9 80.5C63.8 80.4 63.7 80.4 63.7 80.5C63.7 80.6 63.7 80.6 63.8 80.7C63.9 80.8 64.2 80.9 64.3 81C64.5 81.1 64.5 81.2 64.6 81.2C64.6 81.2 64.7 81.2 64.7 81.1C64.9 80.8 65.2 80.5 65.6 79.9C66.4 78.8 66.4 77.3 65.1 76.6Z" fill="#015FFF"/>
<path d="M60.8 80.5C60.6 80.1 60.6 79.9 60.8 79.7C60.8 79.7 60.9 79.6 60.8 79.6C60.8 79.6 60.7 79.6 60.6 79.7C60.4 79.9 60.2 80.2 60.2 80.2C60.1 80.3 59.9 80.5 59.8 80.7C59.7 80.8 59.7 80.8 59.8 80.9C59.8 80.9 59.9 80.9 60 80.8C60.1 80.7 60.2 80.7 60.3 80.7C60.3 80.7 60.4 80.9 60.5 81L60.8 81.6C60.8 81.6 60.8 81.6 60.8 81.7L59.9 82.8C59.9 82.8 59.9 82.8 59.8 82.8L58.8 82.5C58.7 82.5 58.9 82.2 58.9 82.2V82.1C58.9 82.1 58.8 82.1 58.7 82.2C58.6 82.3 58.4 82.6 58.3 82.7C58.2 82.8 58 83 57.9 83.1C57.7 83.3 57.7 83.4 57.8 83.4C57.9 83.4 57.9 83.4 57.9 83.4C58.1 83.2 58.4 83.3 58.8 83.4C59.7 83.7 62.1 84.5 62.5 84.6C62.7 84.6 62.7 84.6 62.8 84.6C62.8 84.6 62.8 84.5 62.7 84.3L60.8 80.5ZM61.9 83.3L60.2 82.7L61 81.8L61.9 83.3Z" fill="#015FFF"/>
<path d="M21.3 87.5C21 87.3 20.7 87.1 20.5 87.1C20.4 87 20 86.8 19.8 86.6C19.7 86.5 19.6 86.5 19.6 86.6C19.6 86.6 19.6 86.7 19.7 86.7C20 86.9 20 87 19.9 87.2C19.8 87.4 19.7 87.5 19.3 88.3L18.8 89.2C18.1 90.5 18 90.5 17.7 90.4C17.6 90.3 17.5 90.3 17.5 90.4C17.5 90.4 17.5 90.5 17.6 90.6C17.8 90.7 18.1 90.9 18.2 91C18.4 91.1 18.9 91.5 19.2 91.7C20.5 92.5 21.9 92.4 22.7 91.1C23.6 89.5 22.8 88.4 21.3 87.5ZM22 90.6C21.3 91.7 20.6 91.9 19.5 91.2C18.8 90.8 18.9 90.7 19.3 90L20.7 87.7C20.8 87.5 20.8 87.5 21.2 87.7C22.2 88.4 22.6 89.5 22 90.6Z" fill="#015FFF"/>
<path d="M27.6 90.5C27.5 90.5 26.4 90.1 26.2 90C26 89.9 25.7 89.8 25.4 89.7C25.3 89.7 25.2 89.7 25.2 89.7C25.2 89.8 25.2 89.8 25.3 89.8C25.6 89.9 25.7 90 25.6 90.3C25.5 90.5 25.5 90.6 25.2 91.5L24.8 92.5C24.7 92.8 24.6 93.1 24.5 93.3C24.3 93.9 24.2 94 23.9 93.8C23.8 93.8 23.8 93.8 23.8 93.8C23.8 93.9 23.8 93.9 23.9 93.9C24.1 94 24.5 94.1 24.6 94.1C25.2 94.3 25.7 94.5 26.3 94.7C26.4 94.7 26.5 94.7 26.6 94.6C26.7 94.5 26.8 94.1 26.9 94C26.9 93.9 26.9 93.9 26.9 93.8C26.8 93.8 26.8 93.8 26.8 93.9C26.7 94.1 26.6 94.2 26.4 94.2C26.2 94.2 25.8 94.1 25.7 94C25.3 93.9 25.3 93.8 25.4 93.4C25.5 93.2 25.6 92.8 25.9 92.1C25.9 92.1 26.5 92.4 26.6 92.4C26.9 92.5 26.8 92.7 26.8 92.9V93C26.9 93 26.9 93 26.9 92.9C27 92.6 27.2 92.2 27.2 92.2C27.2 92.1 27.2 92.1 27.2 92.1C27.2 92.1 27.1 92.1 27 92.2C26.9 92.2 26.8 92.2 26.5 92.1C26.3 92.1 26 92 25.9 92C25.9 92 25.9 92 25.9 91.9L26.4 90.4C27.5 90.8 27.5 90.8 27.4 91.2V91.3C27.5 91.3 27.5 91.3 27.5 91.2C27.7 90.8 27.8 90.6 27.8 90.5V90.4C27.9 90.5 27.7 90.5 27.6 90.5Z" fill="#015FFF"/>
<path d="M35.8 92C35.5 91.9 35.1 91.8 34.4 91.7C33 91.6 31.7 92.2 31.6 93.7C31.4 95.4 32.7 96.2 34.1 96.4C34.5 96.4 34.9 96.4 35.2 96.4C35.3 96.4 35.3 96.3 35.4 96.2C35.5 96 35.6 95.5 35.6 95.4C35.6 95.3 35.6 95.3 35.5 95.3C35.4 95.3 35.4 95.3 35.4 95.4C35.2 95.9 34.9 96 34.1 96C33.1 95.9 32.4 95.1 32.5 93.8C32.6 92.7 33.2 92 34.3 92.1C35 92.2 35.7 92.5 35.6 93.1C35.6 93.2 35.6 93.3 35.7 93.3C35.8 93.3 35.8 93.3 35.8 93.2C35.8 93.1 35.9 92.8 35.9 92.6C35.9 92.4 36 92.3 36 92.3C35.9 92.1 35.9 92 35.8 92Z" fill="#015FFF"/>
<path d="M42.9 95.7C42.6 95.7 42.4 95.7 42.4 95.5C42.3 95.2 42.3 94.8 42.2 94.3L42.1 93.3C42 92.3 42 92.2 42 92C42 91.8 42.1 91.7 42.3 91.6C42.4 91.6 42.4 91.6 42.4 91.5C42.4 91.4 42.3 91.4 42.2 91.4C42 91.4 41.6 91.5 41.5 91.5C41.3 91.5 41 91.5 40.7 91.6C40.6 91.6 40.5 91.6 40.6 91.7C40.6 91.8 40.7 91.8 40.7 91.8C41 91.8 41.1 91.8 41.2 92.1C41.2 92.3 41.3 92.4 41.4 93.3V93.6L39.2 93.8V93.6C39.1 92.7 39.1 92.6 39.1 92.4C39.1 92.1 39.2 92.1 39.4 92C39.5 92 39.5 92 39.5 91.9C39.5 91.8 39.4 91.8 39.3 91.8C39.1 91.8 38.7 91.9 38.6 91.9C38.4 91.9 38.1 91.9 37.8 92C37.7 92 37.6 92 37.7 92.1C37.7 92.2 37.8 92.2 37.8 92.2C38.1 92.2 38.2 92.2 38.3 92.5C38.3 92.7 38.3 92.8 38.4 93.7L38.5 94.7C38.6 95.2 38.6 95.7 38.6 95.9C38.6 96.2 38.6 96.2 38.3 96.3C38.2 96.3 38.2 96.3 38.2 96.4C38.2 96.5 38.3 96.5 38.4 96.5C38.6 96.5 39 96.4 39.1 96.4C39.3 96.4 39.6 96.4 40 96.3C40.1 96.3 40.1 96.3 40.1 96.2C40.1 96.1 40 96.1 40 96.1C39.7 96.1 39.5 96.1 39.5 95.9C39.4 95.7 39.4 95.2 39.3 94.7V94.4L41.5 94.2V94.6C41.6 95.1 41.6 95.6 41.6 95.8C41.6 96.1 41.6 96.1 41.3 96.2C41.2 96.2 41.2 96.2 41.2 96.3C41.2 96.3 41.3 96.4 41.4 96.4C41.6 96.4 42 96.3 42.1 96.3C42.3 96.3 42.6 96.3 43 96.2C43.1 96.2 43.1 96.1 43.1 96.1C43.1 95.7 43 95.7 42.9 95.7Z" fill="#015FFF"/>
<path d="M47.1 94.6C46.8 94.7 46.6 94.7 46.5 94.5C46.4 94.3 46.3 93.8 46.1 93.3L45.8 92.3C45.6 91.5 45.5 91.3 45.5 91.1C45.5 90.8 45.5 90.8 45.8 90.7C45.9 90.7 45.9 90.7 45.9 90.6C45.9 90.6 45.8 90.5 45.7 90.6C45.5 90.7 45.2 90.8 45 90.8C44.8 90.8 44.5 90.9 44.3 91C44.2 91 44.1 91.1 44.2 91.1C44.2 91.2 44.3 91.2 44.3 91.1C44.6 91 44.7 91.1 44.8 91.3C44.9 91.5 44.9 91.6 45.2 92.5L45.5 93.5C45.7 94 45.8 94.5 45.8 94.7C45.8 95 45.8 95 45.5 95.1C45.4 95.1 45.4 95.2 45.4 95.2C45.4 95.3 45.5 95.3 45.6 95.2C45.8 95.1 46.2 95 46.3 95C46.4 95 46.8 94.9 47.2 94.8C47.3 94.8 47.3 94.7 47.3 94.7C47.3 94.6 47.2 94.6 47.1 94.6Z" fill="#015FFF"/>
<path d="M52 91.8C52 91.7 51.9 91.7 51.9 91.7C51.8 91.7 51.9 91.8 51.9 91.8C52 92.2 52 92.4 51.4 92.6C50.7 92.9 50.6 92.9 50.3 92.1L49.3 90C49 89.3 49 89.3 49.4 89.1C49.5 89.1 49.5 89 49.5 89C49.5 89 49.4 88.9 49.3 89C49.1 89.1 48.7 89.3 48.6 89.3C48.5 89.4 48.1 89.5 47.9 89.6C47.8 89.6 47.8 89.7 47.8 89.7C47.8 89.8 47.9 89.8 48 89.7C48.4 89.5 48.4 89.6 48.7 90.2L49.6 92.3C50 93.2 50 93.3 49.7 93.4C49.6 93.4 49.6 93.5 49.6 93.5C49.6 93.6 49.7 93.6 49.8 93.5C50 93.4 50.3 93.2 50.5 93.2C50.9 93 51.3 92.9 52.1 92.5C52.4 92.4 52.4 92.3 52.4 92.2C52.2 92.3 52 91.8 52 91.8Z" fill="#015FFF"/>
<path d="M56.2 89.2C56.2 89.1 56.1 89.1 56.1 89.1C56 89.1 56.1 89.2 56.1 89.2C56.2 89.4 56.2 89.5 56.1 89.7C56 89.8 55.6 90.1 55.5 90.2C55.1 90.4 55.1 90.4 54.9 90.1C54.8 90 54.5 89.5 54.2 89C54.2 89 54.8 88.6 54.9 88.6C55.1 88.4 55.3 88.6 55.4 88.8C55.4 88.8 55.5 88.9 55.5 88.8C55.6 88.8 55.5 88.7 55.5 88.6C55.3 88.3 55.2 87.9 55.1 87.9H55C55 87.9 55 88 54.9 88.1C54.9 88.2 54.8 88.3 54.5 88.5C54.3 88.6 54 88.8 54 88.8C54 88.8 54 88.8 53.9 88.8L53 87.5C54 86.9 54 86.9 54.2 87.2C54.2 87.2 54.3 87.3 54.3 87.2C54.4 87.2 54.4 87.1 54.3 87.1C54 86.7 54 86.5 53.9 86.4C53.9 86.4 53.8 86.3 53.8 86.4C53.8 86.4 53.7 86.5 53.5 86.6C53.4 86.7 52.4 87.3 52.3 87.4C52.2 87.5 51.8 87.7 51.6 87.9C51.5 88 51.5 88 51.5 88.1C51.5 88.1 51.6 88.1 51.7 88.1C52 87.9 52.1 87.9 52.3 88.1C52.4 88.3 52.5 88.4 53 89.1L53.6 90C53.8 90.3 53.9 90.5 54 90.7C54.4 91.2 54.4 91.3 54.1 91.5C54 91.5 54 91.6 54 91.6C54 91.6 54.1 91.6 54.2 91.6C54.4 91.5 54.7 91.3 54.8 91.2C55.3 90.9 55.8 90.6 56.3 90.3C56.4 90.2 56.4 90.2 56.4 90C56.5 89.7 56.3 89.4 56.2 89.2Z" fill="#015FFF"/>
</g>
<defs>
<clipPath id="clip0_1_2">
<rect width="172.1" height="99.2" fill="bg-primary"/>
</clipPath>
</defs>
</svg>
