<svg xmlns="http://www.w3.org/2000/svg" width="819" height="360" fill="none" viewBox="0 0 819 360"><path fill="#015FFF" d="M223.723 172.923C220.943 175.704 216.437 175.706 213.66 172.929L182.412 141.68C179.634 138.903 179.637 134.398 182.418 131.617L280.23 33.8053C283.01 31.0248 287.516 31.0222 290.293 33.7993L321.541 65.0479C324.318 67.8251 324.316 72.3304 321.535 75.1109L223.723 172.923Z"/><path fill="#015FFF" d="M213.643 207.124C209.714 207.126 206.53 203.942 206.532 200.013L206.558 155.794C206.561 151.865 209.748 148.677 213.678 148.675L351.924 148.593C355.854 148.591 359.037 151.774 359.035 155.704L359.009 199.923C359.007 203.852 355.819 207.04 351.889 207.042L213.643 207.124Z"/><path fill="#015FFF" d="M182.341 224.209C179.564 221.432 179.566 216.926 182.347 214.146L213.632 182.86C216.413 180.08 220.918 180.077 223.695 182.855L321.392 280.551C324.169 283.328 324.166 287.834 321.386 290.614L290.1 321.9C287.32 324.68 282.815 324.683 280.037 321.906L182.341 224.209Z"/><path fill="#015FFF" d="M148.152 214.17C148.154 210.24 151.342 207.052 155.271 207.05L199.49 207.024C203.419 207.021 206.603 210.205 206.601 214.135L206.519 352.381C206.517 356.311 203.329 359.498 199.4 359.501L155.181 359.527C151.251 359.529 148.068 356.345 148.07 352.415L148.152 214.17Z"/><path fill="#015FFF" d="M131.104 182.887C133.884 180.107 138.389 180.104 141.167 182.881L172.415 214.13C175.192 216.907 175.19 221.412 172.409 224.193L74.597 322.005C71.8166 324.785 67.3113 324.788 64.5341 322.011L33.2855 290.762C30.5083 287.985 30.511 283.48 33.2915 280.699L131.104 182.887Z"/><path fill="#F9FEFC" d="M199.638 148.867C203.709 148.865 207.006 152.162 207.004 156.233L206.978 199.714C206.976 203.784 203.674 207.085 199.604 207.088L7.99142 207.201C3.92125 207.203 0.623652 203.906 0.626058 199.836L0.651748 156.354C0.654149 152.284 3.95564 148.983 8.02582 148.98L199.638 148.867Z"/><path fill="#F9FEFC" d="M172.328 131.627C175.205 134.504 175.202 139.17 172.322 142.05L141.558 172.814C138.678 175.694 134.012 175.696 131.136 172.82L15.0733 56.7576C12.1969 53.8813 12.1997 49.215 15.0794 46.3353L45.8435 15.5712C48.7233 12.6914 53.3895 12.6887 56.2659 15.565L172.328 131.627Z"/><path fill="#F9FEFC" d="M206.978 199.714C206.976 203.784 203.674 207.085 199.604 207.088L155.877 207.114C151.807 207.116 148.509 203.819 148.512 199.748L148.625 8.13577C148.627 4.06559 151.929 0.764121 155.999 0.76171L199.726 0.735869C203.796 0.733457 207.094 4.03106 207.091 8.10125L206.978 199.714Z"/><path fill="#F9F8F3" d="M480.82 165.8C462.34 165.8 448.48 160.76 439.24 150.68C430.12 140.48 425.56 125.66 425.56 106.22V34.4H453.28V111.08C453.28 122.36 455.74 130.64 460.66 135.92C465.58 141.2 472.36 143.84 481 143.84C489.64 143.84 496.42 141.2 501.34 135.92C506.26 130.64 508.72 122.42 508.72 111.26V34.4H536.44V106.58C536.44 125.78 531.82 140.48 522.58 150.68C513.34 160.76 499.42 165.8 480.82 165.8ZM610.815 165.8C602.055 165.8 594.915 163.76 589.395 159.68C583.995 155.6 580.815 150.02 579.855 142.94L581.295 142.76V164H554.835V34.4H581.835V92.54L580.215 92.18C581.535 85.46 585.015 80.18 590.655 76.34C596.415 72.38 603.615 70.4 612.255 70.4C620.535 70.4 627.675 72.38 633.675 76.34C639.795 80.18 644.475 85.64 647.715 92.72C651.075 99.8 652.755 108.14 652.755 117.74C652.755 127.46 651.015 135.92 647.535 143.12C644.055 150.32 639.195 155.9 632.955 159.86C626.715 163.82 619.335 165.8 610.815 165.8ZM603.255 144.2C609.615 144.2 614.775 141.92 618.735 137.36C622.695 132.8 624.675 126.32 624.675 117.92C624.675 109.52 622.635 103.1 618.555 98.66C614.595 94.22 609.375 92 602.895 92C596.655 92 591.495 94.28 587.415 98.84C583.455 103.28 581.475 109.7 581.475 118.1C581.475 126.5 583.455 132.98 587.415 137.54C591.495 141.98 596.775 144.2 603.255 144.2ZM667.159 164V72.2H694.159V164H667.159ZM666.259 59.96V30.8H695.059V59.96H666.259ZM488.38 325.8C479.02 325.8 470.38 324.18 462.46 320.94C454.54 317.58 447.64 312.9 441.76 306.9C436 300.9 431.5 293.82 428.26 285.66C425.02 277.38 423.4 268.38 423.4 258.66C423.4 248.94 424.96 240.06 428.08 232.02C431.32 223.98 435.82 217.02 441.58 211.14C447.46 205.14 454.36 200.58 462.28 197.46C470.2 194.22 478.9 192.6 488.38 192.6C499.06 192.6 508.66 194.7 517.18 198.9C525.82 202.98 532.84 208.8 538.24 216.36C543.76 223.8 547.12 232.56 548.32 242.64H521.32C519.76 233.4 515.98 226.44 509.98 221.76C503.98 216.96 496.84 214.56 488.56 214.56C481.24 214.56 474.76 216.3 469.12 219.78C463.6 223.26 459.28 228.3 456.16 234.9C453.04 241.38 451.48 249.24 451.48 258.48C451.48 267.84 453.04 275.94 456.16 282.78C459.4 289.5 463.84 294.72 469.48 298.44C475.12 302.04 481.6 303.84 488.92 303.84C496.72 303.84 503.62 301.5 509.62 296.82C515.62 292.14 519.52 285.18 521.32 275.94H548.68C547.12 286.02 543.58 294.84 538.06 302.4C532.54 309.84 525.52 315.6 517 319.68C508.48 323.76 498.94 325.8 488.38 325.8ZM617.889 324C617.169 321.36 616.629 318.54 616.269 315.54C616.029 312.54 615.909 309.06 615.909 305.1H615.189V261.72C615.189 258 613.929 255.12 611.409 253.08C609.009 250.92 605.409 249.84 600.609 249.84C596.049 249.84 592.389 250.62 589.629 252.18C586.989 253.74 585.249 256.02 584.409 259.02H558.669C559.869 250.74 564.129 243.9 571.449 238.5C578.769 233.1 588.789 230.4 601.509 230.4C614.709 230.4 624.789 233.34 631.749 239.22C638.709 245.1 642.189 253.56 642.189 264.6V305.1C642.189 308.1 642.369 311.16 642.729 314.28C643.209 317.28 643.929 320.52 644.889 324H617.889ZM585.849 325.8C576.729 325.8 569.469 323.52 564.069 318.96C558.669 314.28 555.969 308.1 555.969 300.42C555.969 291.9 559.149 285.06 565.509 279.9C571.989 274.62 580.989 271.2 592.509 269.64L619.329 265.86V281.52L597.009 284.94C592.209 285.66 588.669 286.98 586.389 288.9C584.109 290.82 582.969 293.46 582.969 296.82C582.969 299.82 584.049 302.1 586.209 303.66C588.369 305.22 591.249 306 594.849 306C600.489 306 605.289 304.5 609.249 301.5C613.209 298.38 615.189 294.78 615.189 290.7L617.709 305.1C615.069 311.94 611.049 317.1 605.649 320.58C600.249 324.06 593.649 325.8 585.849 325.8ZM700.173 325.98C688.413 325.98 679.653 323.16 673.893 317.52C668.253 311.76 665.433 303.06 665.433 291.42V211.68L692.433 201.6V292.32C692.433 296.4 693.573 299.46 695.853 301.5C698.133 303.54 701.673 304.56 706.473 304.56C708.273 304.56 709.953 304.38 711.513 304.02C713.073 303.66 714.633 303.24 716.193 302.76V323.28C714.633 324.12 712.413 324.78 709.533 325.26C706.773 325.74 703.653 325.98 700.173 325.98ZM648.333 252.72V232.2H716.193V252.72H648.333ZM772.41 325.8C762.21 325.8 753.33 323.82 745.77 319.86C738.21 315.78 732.33 310.14 728.13 302.94C724.05 295.74 722.01 287.46 722.01 278.1C722.01 268.62 724.05 260.34 728.13 253.26C732.33 246.06 738.15 240.48 745.59 236.52C753.03 232.44 761.67 230.4 771.51 230.4C780.99 230.4 789.21 232.32 796.17 236.16C803.13 240 808.53 245.34 812.37 252.18C816.21 259.02 818.13 267.06 818.13 276.3C818.13 278.22 818.07 280.02 817.95 281.7C817.83 283.26 817.65 284.76 817.41 286.2H737.85V268.38H795.63L790.95 271.62C790.95 264.18 789.15 258.72 785.55 255.24C782.07 251.64 777.27 249.84 771.15 249.84C764.07 249.84 758.55 252.24 754.59 257.04C750.75 261.84 748.83 269.04 748.83 278.64C748.83 288 750.75 294.96 754.59 299.52C758.55 304.08 764.43 306.36 772.23 306.36C776.55 306.36 780.27 305.64 783.39 304.2C786.51 302.76 788.85 300.42 790.41 297.18H815.79C812.79 306.06 807.63 313.08 800.31 318.24C793.11 323.28 783.81 325.8 772.41 325.8Z"/></svg>